<?xml version="1.0" encoding="UTF-8" standalone="no"?>
<!-- Generator: Adobe Illustrator 18.0.0, SVG Export Plug-In . SVG Version: 6.00 Build 0)  -->

<svg
   xmlns:dc="http://purl.org/dc/elements/1.1/"
   xmlns:cc="http://creativecommons.org/ns#"
   xmlns:rdf="http://www.w3.org/1999/02/22-rdf-syntax-ns#"
   xmlns:svg="http://www.w3.org/2000/svg"
   xmlns="http://www.w3.org/2000/svg"
   xmlns:sodipodi="http://sodipodi.sourceforge.net/DTD/sodipodi-0.dtd"
   xmlns:inkscape="http://www.inkscape.org/namespaces/inkscape"
   version="1.1"
   id="Capa_1"
   x="0px"
   y="0px"
   viewBox="0 0 297 297"
   style="enable-background:new 0 0 297 297;"
   xml:space="preserve"
   sodipodi:docname="arrows.svg"
   inkscape:version="0.92.1 r15371"><metadata
     id="metadata4838"><rdf:RDF><cc:Work
         rdf:about=""><dc:format>image/svg+xml</dc:format><dc:type
           rdf:resource="http://purl.org/dc/dcmitype/StillImage" /><dc:title></dc:title></cc:Work></rdf:RDF></metadata><defs
     id="defs4836" /><sodipodi:namedview
     pagecolor="#ffffff"
     bordercolor="#666666"
     borderopacity="1"
     objecttolerance="10"
     gridtolerance="10"
     guidetolerance="10"
     inkscape:pageopacity="0"
     inkscape:pageshadow="2"
     inkscape:window-width="640"
     inkscape:window-height="861"
     id="namedview4834"
     showgrid="false"
     inkscape:zoom="0.79461279"
     inkscape:cx="148.5"
     inkscape:cy="148.5"
     inkscape:window-x="2682"
     inkscape:window-y="122"
     inkscape:window-maximized="0"
     inkscape:current-layer="Capa_1" /><path
     d="M294.135,251.898l-58.202-58.203l41.522-23.987c3.245-1.872,5.136-5.435,4.864-9.172c-0.267-3.739-2.65-6.99-6.131-8.38  l-98.11-39.133c1.892-7.346,2.866-14.895,2.865-22.553c0-49.885-40.585-90.469-90.47-90.469C40.587,0.004,0,40.588,0,90.471  c0,49.884,40.586,90.466,90.473,90.466c7.662,0,15.216-0.974,22.563-2.867l39.128,98.112c1.39,3.48,4.645,5.863,8.382,6.133  c3.743,0.27,7.302-1.619,9.173-4.863l23.983-41.523l58.2,58.205c1.835,1.835,4.322,2.865,6.916,2.865  c2.594,0,5.085-1.03,6.917-2.865l28.4-28.404C297.955,261.908,297.955,255.716,294.135,251.898z M90.473,161.378  c-39.102,0-70.911-31.809-70.911-70.907s31.81-70.907,70.912-70.907c39.1,0,70.908,31.808,70.908,70.907  c0.001,5.159-0.56,10.25-1.653,15.231l-18.58-7.41c0.356-2.499,0.535-5.024,0.516-7.569c-0.224-28.14-23.302-51.216-51.446-51.444  c-0.139,0-0.271,0-0.411,0c-13.548,0-26.234,5.233-35.767,14.763c-9.627,9.627-14.87,22.473-14.763,36.178  c0.227,28.142,23.303,51.217,51.448,51.445c0.133,0,0.264,0,0.396,0c2.413,0,4.813-0.183,7.186-0.521l7.409,18.577  C100.732,160.817,95.635,161.378,90.473,161.378z M91.02,78.297c-3.631-1.448-7.773-0.595-10.54,2.168  c-2.765,2.765-3.618,6.908-2.171,10.539l12.401,31.093c-17.45-0.23-31.732-14.564-31.872-32.034  c-0.066-8.417,3.142-16.298,9.034-22.19c5.833-5.832,13.616-9.034,21.937-9.034c0.086,0,0.169,0,0.252,0.002  c17.467,0.141,31.797,14.41,32.035,31.854L91.02,78.297z M258.817,273.387l-60.296-60.3c-1.846-1.848-4.339-2.866-6.916-2.866  c-0.424,0-0.851,0.027-1.276,0.083c-3.014,0.397-5.673,2.173-7.194,4.807l-20.27,35.096l-57.954-145.308l145.304,57.958  l-35.104,20.273c-2.631,1.521-4.406,4.182-4.806,7.193c-0.395,3.015,0.632,6.043,2.782,8.192l60.3,60.299L258.817,273.387z"
     id="path4801" /><g
     id="g4803" /><g
     id="g4805" /><g
     id="g4807" /><g
     id="g4809" /><g
     id="g4811" /><g
     id="g4813" /><g
     id="g4815" /><g
     id="g4817" /><g
     id="g4819" /><g
     id="g4821" /><g
     id="g4823" /><g
     id="g4825" /><g
     id="g4827" /><g
     id="g4829" /><g
     id="g4831" /><g
     transform="translate(114.72428,-173.55427)"
     id="Layer_2"
     data-name="Layer 2"
     style="fill:#48505a;fill-opacity:1"><g
       id="Layer_1-2"
       data-name="Layer 1"
       style="fill:#48505a;fill-opacity:1"><rect
         class="cls-1"
         x="15.01"
         y="2.4200001"
         width="7.25"
         height="3"
         transform="rotate(-71.44,18.630679,3.9141511)"
         id="rect4590"
         style="fill:#48505a;fill-opacity:1" /><rect
         class="cls-1"
         x="5.6900001"
         y="3.04"
         width="3"
         height="7.25"
         transform="rotate(-41.43,7.1965188,6.6658498)"
         id="rect4592"
         style="fill:#48505a;fill-opacity:1" /><rect
         class="cls-1"
         x="0.23"
         y="16.450001"
         width="7.25"
         height="3"
         transform="rotate(-11.42,3.8605856,17.961819)"
         id="rect4594"
         style="fill:#48505a;fill-opacity:1" /><rect
         class="cls-1"
         x="8.3299999"
         y="24.99"
         width="7.2600002"
         height="3"
         transform="rotate(-71.44,11.9552,26.48748)"
         id="rect4596"
         style="fill:#48505a;fill-opacity:1" /><rect
         class="cls-1"
         x="21.9"
         y="20.110001"
         width="3"
         height="7.25"
         transform="rotate(-41.43,23.395767,23.733322)"
         id="rect4598"
         style="fill:#48505a;fill-opacity:1" /><rect
         class="cls-1"
         x="23.110001"
         y="10.95"
         width="7.2600002"
         height="3"
         transform="rotate(-11.42,26.732897,12.471014)"
         id="rect4600"
         style="fill:#48505a;fill-opacity:1" /><path
         inkscape:connector-curvature="0"
         class="cls-2"
         d="m 47.34,39.42 a 0.71,0.71 0 0 0 0.4,-1.28 L 34.07,27.72 20,17 a 0.71,0.71 0 0 0 -1.14,0.57 l 0.05,17.73 0.05,17.2 a 0.71,0.71 0 0 0 1.26,0.45 L 26,45.83 a 0.71,0.71 0 0 1 1.19,0.14 l 6.92,13.92 a 0.71,0.71 0 0 0 1,0.32 l 9.06,-4.51 a 0.71,0.71 0 0 0 0.32,-1 L 37.56,40.83 a 0.71,0.71 0 0 1 0.61,-1 z"
         id="path4602"
         style="fill:#48505a;fill-opacity:1" /><path
         inkscape:connector-curvature="0"
         class="cls-3"
         d="m 34.77,61.79 a 2.22,2.22 0 0 1 -2,-1.23 l -6.36,-12.83 -5.07,6.15 a 2.21,2.21 0 0 1 -3.92,-1.4 l -0.1,-34.93 a 2.21,2.21 0 0 1 3.55,-1.77 L 48.66,37 a 2.21,2.21 0 0 1 -1.25,4 l -8,0.33 6.38,12.83 a 2.21,2.21 0 0 1 -1,3 l -9.06,4.51 a 2.2,2.2 0 0 1 -0.96,0.12 z m -8.2,-17.71 h 0.25 a 2.2,2.2 0 0 1 1.73,1.21 L 35.12,58.5 42.77,54.7 36.21,41.49 A 2.21,2.21 0 0 1 38.1,38.3 l 7,-0.29 -24.78,-18.88 0.09,31.15 4.46,-5.4 a 2.2,2.2 0 0 1 1.71,-0.81 z m 20.71,-6.15 z"
         id="path4604"
         style="fill:#48505a;fill-opacity:1" /><path
         inkscape:connector-curvature="0"
         class="cls-2"
         d="m 85.46,52.91 a 0.71,0.71 0 0 0 0.4,-1.28 L 72.18,41.21 58.08,30.46 a 0.71,0.71 0 0 0 -1.14,0.57 L 57,48.76 V 66 a 0.71,0.71 0 0 0 1.26,0.45 l 5.85,-7.09 a 0.71,0.71 0 0 1 1.19,0.14 l 6.92,13.92 a 0.71,0.71 0 0 0 1,0.32 l 9.06,-4.51 a 0.71,0.71 0 0 0 0.32,-1 L 75.67,54.32 a 0.71,0.71 0 0 1 0.61,-1 z"
         id="path4606"
         style="fill:#48505a;fill-opacity:1" /><path
         inkscape:connector-curvature="0"
         class="cls-3"
         d="m 72.89,75.28 a 2.22,2.22 0 0 1 -2,-1.23 L 64.53,61.22 59.46,67.37 A 2.21,2.21 0 0 1 55.54,66 L 55.43,31 A 2.21,2.21 0 0 1 59,29.27 l 27.77,21.17 a 2.21,2.21 0 0 1 -1.25,4 l -8,0.33 6.38,12.83 a 2.22,2.22 0 0 1 -1,3 L 73.87,75 a 2.2,2.2 0 0 1 -0.98,0.28 z M 72.54,72.36 Z M 64.69,57.57 h 0.25 a 2.21,2.21 0 0 1 1.73,1.21 L 73.24,72 80.89,68.2 74.33,55 a 2.21,2.21 0 0 1 1.89,-3.19 l 7,-0.29 L 58.44,32.63 58.53,63.78 63,58.37 a 2.2,2.2 0 0 1 1.69,-0.8 z M 85.4,51.42 Z"
         id="path4608"
         style="fill:#48505a;fill-opacity:1" /></g></g><path
     style="fill:#48505a;fill-opacity:1;stroke:#48505a;stroke-width:1.25847459;stroke-opacity:0"
     d="m 253.58263,294.38767 c -2.07649,-1.32857 -16.47488,-15.17772 -31.99644,-30.77587 l -28.22102,-28.36028 -12.43842,21.62445 c -6.84113,11.89345 -13.363,22.33235 -14.49303,23.19755 -3.19949,2.44964 -8.4231,1.86459 -11.23608,-1.25848 -1.9141,-2.12508 -26.48399,-61.63567 -40.73942,-98.67466 -0.93551,-2.43067 -1.54894,-2.59695 -5.83969,-1.58297 -7.87572,1.86118 -29.491806,1.46314 -38.888443,-0.71609 C 37.984678,170.47907 10.51727,142.96905 3.0806908,111.08853 -1.0239833,93.491843 1.0539284,70.606232 8.2394024,54.271743 14.940098,39.039283 29.914284,22.207619 44.687926,13.301949 62.990974,2.2687264 88.876316,-1.8714921 110.07207,2.8441149 c 25.13559,5.5921408 48.66008,23.9225131 60.12567,46.8501641 7.90436,15.806292 10.25441,27.028001 9.39816,44.877086 -0.37031,7.719245 -1.02403,15.167615 -1.45272,16.551945 -0.70833,2.28732 3.81978,4.33387 49.63304,22.43242 54.63231,21.58253 55.60215,22.12769 53.34798,29.98753 -0.94944,3.3105 -3.74119,5.41209 -18.75469,14.11823 -9.70155,5.62582 -19.85154,11.54189 -22.55553,13.14683 l -4.91632,2.91807 30.42193,30.44095 c 27.84958,27.86697 30.42194,30.80458 30.42194,34.74134 0,3.82896 -1.759,6.06372 -16.04556,20.38553 -9.02951,9.05179 -17.42124,16.39645 -19.19173,16.7971 -1.98191,0.44849 -4.54332,-0.18195 -6.92161,-1.70364 z m -10.68334,-67.471 c -27.44751,-27.46335 -31.47556,-31.98791 -31.47556,-35.35532 0,-5.10832 2.38808,-7.1019 21.75945,-18.1649 8.85298,-5.05594 16.35442,-9.61024 16.66988,-10.12065 0.57708,-0.93372 -144.22626,-59.40853 -145.05739,-58.5774 -0.80845,0.80845 56.8922,144.02112 58.13223,144.28382 0.66764,0.14146 5.50122,-7.13789 10.74126,-16.17632 11.41814,-19.69482 13.03842,-21.63387 18.07744,-21.63387 3.34258,0 7.95208,4.09892 35.35039,31.43472 l 31.50659,31.43472 7.88564,-7.81554 7.88563,-7.81554 z M 105.3991,160.30683 c 0.36955,-0.36955 -0.88213,-4.93284 -2.78153,-10.14065 l -3.453434,-9.46872 h -8.025981 c -36.996892,0 -61.774004,-38.69208 -46.153167,-72.073038 4.920169,-10.514157 13.405962,-18.951008 24.231114,-24.09136 7.505933,-3.564211 9.217239,-3.877391 20.76483,-3.800102 14.037018,0.09394 19.991568,2.025498 30.876478,10.015752 11.70257,8.590481 20.09174,25.63677 20.09174,40.825222 v 7.283587 l 9.42187,3.837399 c 6.81892,2.77725 9.67647,3.42854 10.34342,2.35747 0.50685,-0.81397 0.86427,-7.426225 0.79427,-14.693915 C 161.40566,79.657877 160.76808,75.377997 158.15667,67.857247 150.56555,45.995197 133.62455,29.352706 111.82691,22.343828 100.27473,18.629309 82.510475,18.329579 71.103814,21.656724 38.912658,31.046382 16.7498,62.575742 19.2797,95.382825 c 2.488515,32.270415 25.730133,58.467295 58.116486,65.506205 5.092979,1.10691 26.764354,0.65636 28.002914,-0.5822 z M 90.614852,121.50572 c 0.0025,-0.8652 -2.890375,-8.79363 -6.42878,-17.61873 -7.260357,-18.10799 -7.352573,-21.210044 -0.72448,-24.370762 4.024253,-1.919032 4.47811,-1.813611 21.361028,4.961721 l 17.24941,6.922412 -0.0123,-3.981748 c -0.0319,-10.328293 -10.88302,-23.96934 -21.62786,-27.188572 -17.932046,-5.372573 -35.641237,3.572283 -40.682691,20.5487 -2.319306,7.80995 -2.320781,10.086078 -0.01158,17.862032 3.283797,11.057747 10.290433,18.328067 21.347118,22.150497 7.667698,2.65081 9.523938,2.78997 9.530116,0.71445 z"
     id="path4888"
     inkscape:connector-curvature="0" /></svg>