<?xml version="1.0" encoding="UTF-8" standalone="no"?>
<!-- Generator: Adobe Illustrator 16.0.0, SVG Export Plug-In . SVG Version: 6.00 Build 0)  -->

<svg
   xmlns:dc="http://purl.org/dc/elements/1.1/"
   xmlns:cc="http://creativecommons.org/ns#"
   xmlns:rdf="http://www.w3.org/1999/02/22-rdf-syntax-ns#"
   xmlns:svg="http://www.w3.org/2000/svg"
   xmlns="http://www.w3.org/2000/svg"
   xmlns:sodipodi="http://sodipodi.sourceforge.net/DTD/sodipodi-0.dtd"
   xmlns:inkscape="http://www.inkscape.org/namespaces/inkscape"
   version="1.1"
   id="Layer_1"
   x="0px"
   y="0px"
   width="512px"
   height="512px"
   viewBox="0 0 512 512"
   enable-background="new 0 0 512 512"
   xml:space="preserve"
   sodipodi:docname="cloud-Integration.svg"
   inkscape:version="0.92.1 r15371"><metadata
     id="metadata4745"><rdf:RDF><cc:Work
         rdf:about=""><dc:format>image/svg+xml</dc:format><dc:type
           rdf:resource="http://purl.org/dc/dcmitype/StillImage" /><dc:title></dc:title></cc:Work></rdf:RDF></metadata><defs
     id="defs4743" /><sodipodi:namedview
     pagecolor="#ffffff"
     bordercolor="#666666"
     borderopacity="1"
     objecttolerance="10"
     gridtolerance="10"
     guidetolerance="10"
     inkscape:pageopacity="0"
     inkscape:pageshadow="2"
     inkscape:window-width="1020"
     inkscape:window-height="1092"
     id="namedview4741"
     showgrid="false"
     inkscape:zoom="1.6542969"
     inkscape:cx="256"
     inkscape:cy="256"
     inkscape:window-x="3446"
     inkscape:window-y="122"
     inkscape:window-maximized="0"
     inkscape:current-layer="Layer_1" /><g
     id="g4738"><path
       d="M446.844,208.875C447.625,203.313,448,197.656,448,192c0-70.563-57.406-128-128-128   c-40.938,0-78.531,19.344-102.344,51.063C209.25,113.031,200.688,112,192,112c-61.75,0-112,50.25-112,112   c0,1.563,0.031,3.094,0.094,4.625C33.813,242.375,0,285.313,0,336c0,61.75,50.25,112,112,112h272c70.594,0,128-57.406,128-128   C512,273.344,486.344,231.188,446.844,208.875z M384,416H112c-44.188,0-80-35.813-80-80s35.813-80,80-80   c2.438,0,4.75,0.5,7.125,0.719c-4.5-10-7.125-21.031-7.125-32.719c0-44.188,35.813-80,80-80c14.438,0,27.813,4.125,39.5,10.813   C246,120.25,280.156,96,320,96c53.031,0,96,42.969,96,96c0,12.625-2.594,24.625-7.031,35.688C449.813,238.75,480,275.688,480,320   C480,373.031,437.031,416,384,416z"
       id="path4732" /><path
       d="M288,288h32c0,35.313-28.719,64-64,64c-11.906,0-23.141-3.563-32.922-9.438l-19.438,25.906   C218.922,378.375,237,384,256,384c52.938,0,96-43.063,96-96h32l-48-64L288,288z"
       id="path4734" /><path
       d="M192,288c0-35.313,28.703-64,64-64c11.906,0,23.141,3.563,32.906,9.438l19.438-25.906C293.094,197.625,275,192,256,192   c-52.938,0-96,43.063-96,96h-32l48,64l48-64H192z"
       id="path4736" /></g><path
     style="fill:#48505a;fill-opacity:1;stroke:#48505a;stroke-width:0.60448641;stroke-opacity:0"
     d="M 100.0425,447.06967 C 83.848179,445.22443 65.825827,438.93298 52.590319,430.5045 41.789588,423.62651 29.931276,412.66181 22.529356,402.70885 3.3971636,376.98285 -3.8114097,344.37692 2.7192605,313.10351 7.4448294,290.47419 20.348756,268.14005 37.478158,252.94276 c 10.6069,-9.4105 23.626237,-17.25346 36.420307,-21.9399 l 6.195986,-2.26957 0.0062,-3.38294 c 0.01203,-6.52816 1.285725,-17.95728 2.766366,-24.8232 11.419341,-52.9529 60.183553,-90.66217 113.893283,-88.07343 6.45858,0.31129 15.15749,1.45421 19.6963,2.58783 0.99603,0.24876 1.95635,-0.54733 4.59116,-3.806 20.62797,-25.512207 51.6803,-42.314341 85.39215,-46.204912 7.71617,-0.890497 27.22714,-0.347015 34.4904,0.960737 27.12594,4.884034 50.22791,16.877137 69.23522,35.942615 21.26638,21.33147 33.78329,47.74439 36.89251,77.8498 0.71361,6.90968 0.4961,25.93386 -0.32039,28.02242 -0.27709,0.70878 1.21218,1.97012 5.84788,4.95287 40.61452,26.1327 63.23342,72.39525 58.48232,119.61418 -3.82279,37.99294 -24.62471,72.54773 -56.55475,93.94507 -16.71392,11.20053 -38.12065,18.80213 -58.52839,20.78362 -8.06753,0.78332 -289.05329,0.75266 -295.94224,-0.0323 z m 294.05815,-31.39021 c 27.32363,-3.13007 50.99235,-16.69544 67.33444,-38.59172 4.60727,-6.17314 10.53715,-17.15665 13.01085,-24.09908 9.00941,-25.28493 7.30417,-53.11224 -4.70721,-76.81556 -4.97786,-9.82333 -15.56547,-22.75324 -24.82836,-30.32115 -8.45333,-6.90648 -20.83358,-13.70695 -30.83717,-16.93887 -2.32727,-0.75188 -4.30691,-1.42832 -4.39918,-1.5032 -0.0923,-0.0749 0.63946,-2.55414 1.62608,-5.50949 3.66008,-10.96352 4.54329,-16.84461 4.52894,-30.1573 -0.011,-10.22417 -0.22304,-13.06914 -1.37406,-18.43683 -8.31831,-38.79202 -36.63625,-67.27634 -75.24878,-75.69091 -5.26665,-1.147727 -7.97221,-1.336782 -19.13064,-1.336782 -14.05072,0 -19.30021,0.738839 -29.95017,4.215342 -24.35742,7.95106 -44.52248,25.27614 -55.90312,48.02992 -1.41304,2.82514 -2.66458,5.24704 -2.78119,5.382 -0.11662,0.13495 -2.86714,-1.00304 -6.11227,-2.52887 -11.44192,-5.37989 -20.47473,-7.3396 -33.70661,-7.31278 -10.58992,0.0215 -17.99659,1.20973 -26.43641,4.24127 -18.69192,6.71402 -34.96861,20.82521 -44.20569,38.32443 -6.13429,11.62113 -9.01624,23.49606 -9.01624,37.15099 0,10.1599 1.21594,17.48038 4.40363,26.51179 0.99528,2.81984 1.80961,5.22248 1.80961,5.33918 0,0.11672 -3.46825,0.24417 -7.70721,0.28325 -21.20246,0.19542 -40.817688,8.7269 -55.957958,24.33842 -14.165147,14.60605 -21.683654,32.12104 -22.595098,52.63716 -1.826991,41.12459 28.80902,77.47969 69.718356,82.73326 6.05896,0.7781 285.69445,0.83119 292.46546,0.0556 z"
     id="path4795"
     inkscape:connector-curvature="0" /><path
     style="fill:#48505a;fill-opacity:1;stroke:#48505a;stroke-width:0.60448641;stroke-opacity:0"
     d="M 152.17743,319.82299 128.4493,288.15868 h 15.92864 15.92864 l 0.38086,-7.10272 c 1.06923,-19.93997 9.99439,-41.08447 23.7932,-56.36821 9.15389,-10.13898 17.99201,-16.80405 30.11204,-22.70832 13.7187,-6.68307 25.80472,-9.45043 41.40732,-9.48113 10.57125,-0.0208 17.1634,0.91542 27.47326,3.90175 6.92896,2.00703 23.10814,9.54473 23.67873,11.03166 0.18202,0.47434 -3.67014,6.14447 -8.94388,13.16479 l -9.2636,12.33158 -6.04486,-2.87271 c -15.15779,-7.20347 -31.8953,-8.2116 -47.61747,-2.86809 -23.95699,8.14227 -41.51734,30.6671 -43.1662,55.36968 l -0.37254,5.58129 15.76937,0.16133 15.76936,0.16134 -23.5356,31.38133 c -12.94458,17.25973 -23.60432,31.44067 -23.68831,31.51319 -0.084,0.0725 -10.83037,-14.11707 -23.88083,-31.53245 z"
     id="path4797"
     inkscape:connector-curvature="0" /><path
     style="fill:#48505a;fill-opacity:1;stroke:#48505a;stroke-width:0.60448641;stroke-opacity:0"
     d="M 246.63046,383.30905 C 230.7745,381.056 218.84929,377.07541 206.60527,369.94882 l -2.54703,-1.4825 9.12869,-12.19632 c 5.02078,-6.70798 9.31454,-12.40612 9.54169,-12.66254 0.22716,-0.25642 3.03837,0.77744 6.24715,2.29745 3.20878,1.52001 8.49376,3.47685 11.74442,4.34853 5.21291,1.39787 7.05145,1.58487 15.58205,1.58487 8.57548,0 10.35537,-0.18312 15.70246,-1.61542 24.34712,-6.52175 42.45214,-25.92893 47.1136,-50.50213 0.52649,-2.77546 0.95726,-6.64835 0.95726,-8.60643 v -3.56014 h -15.4144 c -8.47793,0 -15.41441,-0.13727 -15.41441,-0.30505 0,-0.53115 46.70748,-62.601 46.93555,-62.37294 0.11981,0.11981 10.70677,14.20337 23.52659,31.29679 l 23.30875,31.07896 -15.66504,0.16098 -15.66506,0.16099 -0.35392,6.7906 c -2.20775,42.35937 -34.55188,79.10518 -77.03855,87.52262 -6.25085,1.23842 -22.92471,2.09542 -27.66461,1.42191 z"
     id="path4799"
     inkscape:connector-curvature="0" /></svg>