<?xml version="1.0" encoding="UTF-8" standalone="no"?>
<!-- Generator: Adobe Illustrator 16.0.0, SVG Export Plug-In . SVG Version: 6.00 Build 0)  -->

<svg
   xmlns:dc="http://purl.org/dc/elements/1.1/"
   xmlns:cc="http://creativecommons.org/ns#"
   xmlns:rdf="http://www.w3.org/1999/02/22-rdf-syntax-ns#"
   xmlns:svg="http://www.w3.org/2000/svg"
   xmlns="http://www.w3.org/2000/svg"
   xmlns:sodipodi="http://sodipodi.sourceforge.net/DTD/sodipodi-0.dtd"
   xmlns:inkscape="http://www.inkscape.org/namespaces/inkscape"
   version="1.1"
   id="Layer_1"
   x="0px"
   y="0px"
   width="512px"
   height="512px"
   viewBox="0 0 512 512"
   enable-background="new 0 0 512 512"
   xml:space="preserve"
   sodipodi:docname="cloud-1.svg"
   inkscape:version="0.92.1 r15371"><sodipodi:namedview
     pagecolor="#ffffff"
     bordercolor="#666666"
     borderopacity="1"
     objecttolerance="10"
     gridtolerance="10"
     guidetolerance="10"
     inkscape:pageopacity="0"
     inkscape:pageshadow="2"
     inkscape:window-width="1448"
     inkscape:window-height="951"
     id="namedview3683"
     showgrid="false"
     inkscape:zoom="1.4316406"
     inkscape:cx="142.49386"
     inkscape:cy="228.06003"
     inkscape:window-x="2386"
     inkscape:window-y="246"
     inkscape:window-maximized="0"
     inkscape:current-layer="Layer_1" /><metadata
     id="metadata3687"><rdf:RDF><cc:Work
         rdf:about=""><dc:format>image/svg+xml</dc:format><dc:type
           rdf:resource="http://purl.org/dc/dcmitype/StillImage" /><dc:title></dc:title></cc:Work></rdf:RDF></metadata><defs
     id="defs3685" /><path
     id="path3680"
     d="M320,96c53.031,0,96,42.969,96,96c0,12.625-2.594,24.625-7.031,35.688C449.813,238.75,480,275.688,480,320  c0,53.031-42.969,96-96,96H112c-44.188,0-80-35.813-80-80s35.813-80,80-80c2.453,0,4.75,0.5,7.141,0.719  c-4.5-10-7.141-21.031-7.141-32.719c0-44.188,35.813-80,80-80c14.438,0,27.797,4.125,39.484,10.813  C246.016,120.25,280.156,96,320,96 M320,64c-40.938,0-78.531,19.344-102.344,51.063C209.266,113.031,200.703,112,192,112  c-61.75,0-112,50.25-112,112c0,1.563,0.031,3.094,0.094,4.625C33.828,242.375,0,285.313,0,336c0,61.75,50.25,112,112,112h272  c70.594,0,128-57.406,128-128c0-46.656-25.656-88.813-65.156-111.125C447.625,203.313,448,197.656,448,192  C448,121.438,390.594,64,320,64L320,64z" /><path
     inkscape:connector-curvature="0"
     id="path3689"
     d="M 102.51775,447.1976 C 34.076215,441.43507 -13.263856,374.68497 3.9726556,308.24775 9.230804,287.9805 18.01375,272.7479 33.200901,257.55607 46.177059,244.57593 60.41503,235.46654 75.254277,230.65052 l 4.94043,-1.60341 0.4431,-9.8185 c 0.243706,-5.40019 1.051737,-12.85214 1.795618,-16.5599 9.091807,-45.31664 45.532545,-80.91364 90.743955,-88.64291 10.60325,-1.81272 26.93508,-1.81655 37.14076,-0.009 l 7.33425,1.29918 2.02621,-2.54653 c 1.11442,-1.40059 6.16686,-6.66506 11.22764,-11.69883 19.18188,-19.079481 41.17094,-30.249573 69.51832,-35.314186 6.95944,-1.243391 32.09142,-1.250989 39.11596,-0.01183 7.87228,1.38871 20.31116,4.772635 26.38477,7.177821 8.49335,3.363417 20.85736,10.028619 28.09818,15.147176 7.74071,5.471941 22.47892,19.866869 28.0453,27.392069 12.45596,16.83922 20.68276,36.29669 24.06955,56.92769 1.32198,8.05297 1.78943,28.98376 0.75908,33.98918 -0.52408,2.54603 -0.5085,2.56752 3.72735,5.14066 26.8549,16.31348 47.25602,43.21801 56.22101,74.14293 5.53831,19.10455 6.06611,44.97927 1.30846,64.14606 -11.48066,46.25123 -47.12154,82.1953 -93.14789,93.94028 -15.82662,4.03863 -5.47689,3.78876 -162.07973,3.91309 -78.94788,0.0627 -146.63187,-0.14623 -150.40885,-0.46423 z m 299.91251,-32.57017 c 20.1681,-4.45007 35.74219,-12.84629 49.56927,-26.72353 8.31236,-8.34252 13.14976,-15.01158 18.09411,-24.94536 6.80126,-13.66453 9.95681,-27.25206 9.94824,-42.8363 -0.0147,-26.80716 -9.39471,-49.35129 -28.33603,-68.10369 -11.44519,-11.33102 -22.37441,-17.78093 -41.38725,-24.42477 -0.57605,-0.20129 -0.31126,-1.74329 0.895,-5.21185 3.46854,-9.97382 4.67865,-17.67758 4.72576,-30.08507 0.0473,-12.45541 -0.89314,-19.04003 -4.22636,-29.59152 -10.82942,-34.28119 -40.75199,-59.94348 -76.6919,-65.77275 -8.07804,-1.310217 -21.99909,-1.310217 -30.07713,0 -20.94485,3.39715 -41.06575,14.04018 -55.16775,29.18119 -5.86119,6.29304 -13.05724,16.63473 -16.16088,23.22537 -1.08549,2.30505 -2.05191,4.31732 -2.1476,4.47173 -0.0957,0.15439 -2.98005,-1.02304 -6.4097,-2.61652 -38.67849,-17.97079 -84.80334,-2.06404 -104.31379,35.97398 -6.70938,13.08078 -9.26946,24.86774 -8.69945,40.05349 0.36412,9.70035 2.20656,18.80956 5.23022,25.85863 l 1.34221,3.12909 -6.74749,-0.23574 c -15.016921,-0.52467 -31.630253,4.56417 -45.71344,14.00249 -5.882318,3.94223 -16.876266,15.19536 -20.998005,21.49303 -21.20271,32.39593 -16.82287,74.7407 10.526497,101.77131 11.292056,11.16044 27.893334,19.60266 42.873462,21.80234 2.881306,0.42309 6.024556,0.88858 6.984996,1.03441 0.96043,0.14584 66.65429,0.20992 145.98635,0.14241 143.81466,-0.12237 144.25976,-0.12706 150.90066,-1.59237 z"
     style="stroke-width:0.69849932;opacity:1" /><path
     inkscape:connector-curvature="0"
     id="path3691"
     d="M 102.51775,447.18577 C 41.907868,442.18707 -4.428381,387.6332 0.72420004,327.33938 3.080528,299.7664 13.603598,277.151 33.196704,257.55188 46.206437,244.53816 58.082715,236.86425 74.61355,230.79019 l 5.434472,-1.99684 0.45195,-9.06318 c 2.548265,-51.10121 37.316378,-92.85943 87.209718,-104.74315 10.52968,-2.50799 31.09795,-3.02737 42.2592,-1.06711 l 7.6835,1.34946 2.01784,-2.52309 c 1.1098,-1.3877 6.13899,-6.61029 11.17599,-11.60575 16.99191,-16.851852 35.07664,-27.09192 58.00198,-32.842302 12.31887,-3.089951 22.45389,-4.112515 35.90945,-3.623052 20.46947,0.744603 35.92271,4.854077 54.53762,14.503163 23.68769,12.278569 43.40683,32.577901 55.26336,56.889331 7.18581,14.73427 11.03433,28.49392 12.60119,45.0532 0.75131,7.94012 0.4902,22.33561 -0.47579,26.23117 -0.29393,1.18535 0.77347,2.16389 6.14671,5.635 29.27093,18.90901 48.97043,47.65875 56.46956,82.41251 2.1454,9.94255 2.68044,31.10935 1.06632,42.18517 -4.27859,29.35922 -17.05085,54.12062 -38.55312,74.74242 -21.6081,20.72329 -48.68728,32.71064 -78.88094,34.9188 -11.03705,0.80717 -280.57524,0.75133 -290.41481,-0.0602 z m 298.31128,-32.30885 c 30.4217,-6.11863 55.00275,-24.28156 68.54693,-50.6493 4.36621,-8.50012 7.98314,-19.20376 9.45771,-27.98836 1.40038,-8.34262 1.4248,-23.54163 0.0514,-32.00961 -3.51526,-21.67452 -15.46873,-42.76637 -32.21038,-56.83513 -10.75944,-9.04162 -20.07365,-14.1316 -36.03168,-19.69039 -1.09493,-0.3814 -1.05056,-0.83102 0.54403,-5.51291 3.52705,-10.35582 4.72564,-18.13926 4.71104,-30.59286 -0.0108,-9.18214 -0.3273,-13.01014 -1.55698,-18.82921 -8.02878,-37.99373 -37.17028,-67.03677 -75.49909,-75.244028 -8.28619,-1.774301 -29.34588,-1.797239 -37.48099,-0.04082 -27.59754,5.958458 -49.92921,21.814608 -64.17811,45.568358 -2.07405,3.45757 -4.12582,7.30805 -4.55948,8.55662 -0.43366,1.24856 -1.02778,2.27012 -1.32027,2.27012 -0.29249,0 -2.85492,-1.06993 -5.6943,-2.37764 -11.74251,-5.40813 -21.16858,-7.4941 -33.80096,-7.48009 -14.09906,0.0156 -24.46809,2.56474 -37.33968,9.17951 -30.03006,15.4326 -47.09227,49.66963 -41.60703,83.48868 0.9072,5.59331 3.74501,15.53734 5.2721,18.47404 0.46907,0.90206 -0.25069,1.01368 -5.11294,0.79287 -16.791483,-0.76254 -36.800582,5.99624 -50.718543,17.13198 -33.636929,26.91287 -40.427482,74.70705 -15.564647,109.54918 12.978181,18.18728 33.710149,30.44223 56.0133,33.11021 2.97582,0.35598 67.22268,0.55319 148.77913,0.45669 130.46161,-0.15437 144.06628,-0.27538 149.29943,-1.32791 z"
     style="stroke-width:0.69849932;opacity:1" /><path
     inkscape:connector-curvature="0"
     id="path3693"
     d="M 102.4,447.20004 C 71.25256,444.75317 41.407578,428.09466 22.510646,402.60837 -2.6587202,368.66246 -6.7289571,323.87592 11.964511,286.56479 c 12.218017,-24.38647 34.568612,-44.98521 58.994791,-54.37072 3.846273,-1.47789 7.497671,-2.85955 8.114215,-3.07034 0.926246,-0.31667 1.188588,-2.00174 1.510023,-9.69919 1.18916,-28.47649 12.243876,-53.55348 32.61358,-73.98207 15.82817,-15.87392 32.75966,-25.30728 54.86182,-30.56619 7.1457,-1.70022 8.80796,-1.82692 23.74897,-1.8101 12.34191,0.0139 17.1981,0.28221 20.95216,1.15764 l 4.88667,1.13956 2.0635,-2.5701 c 3.62155,-4.51068 15.2489,-16.173877 19.94488,-20.006381 21.29663,-17.380715 47.42373,-27.158426 75.08867,-28.100918 23.94654,-0.815814 42.7665,3.294099 63.14688,13.790045 19.98103,10.29028 36.12318,24.663024 48.59957,43.272404 4.76336,7.10486 11.36597,20.41809 14.23031,28.6934 5.19952,15.02181 7.89569,35.29834 6.67189,50.17602 l -0.65573,7.97174 2.55261,1.80725 c 1.40395,0.99399 5.45241,3.83492 8.99658,6.31318 21.14483,14.78553 38.34914,38.07239 46.72791,63.24851 5.21283,15.66324 5.96908,20.75176 5.96908,40.16371 0,15.19087 -0.17857,17.9371 -1.58975,24.44747 -5.8072,26.79131 -18.07857,49.0136 -37.22501,67.41099 -22.06613,21.20284 -48.71898,33.05235 -79.30425,35.25762 -11.50152,0.82929 -279.87034,0.79392 -290.46388,-0.0383 z m 298.25921,-32.40859 c 12.1137,-2.18535 26.48187,-7.94155 36.32196,-14.55137 20.12177,-13.51627 34.0121,-33.15355 40.36632,-57.06737 2.03636,-7.66373 2.13688,-8.69053 2.18827,-22.35197 0.0435,-11.54057 -0.19914,-15.47137 -1.24995,-20.25648 -6.11351,-27.83918 -23.87192,-51.49777 -48.63888,-64.799 -4.31083,-2.31516 -13.3488,-6.1541 -19.00754,-8.07357 -1.11421,-0.37795 -1.09964,-0.68184 0.21361,-4.45412 4.14504,-11.90663 5.80377,-25.76998 4.7587,-39.77244 -2.41888,-32.40957 -22.40519,-62.02982 -52.03294,-77.11422 -7.28842,-3.71077 -18.52484,-7.58764 -26.48299,-9.137365 -7.4219,-1.4453 -28.52017,-1.251201 -35.81079,0.32945 -21.5631,4.675015 -41.25037,16.239885 -54.2856,31.888925 -5.29572,6.3576 -10.94329,14.91575 -13.45725,20.39267 -1.02367,2.23015 -2.07088,4.05481 -2.32715,4.05481 -0.25627,0 -2.82157,-1.0735 -5.70068,-2.38554 -12.80412,-5.83503 -22.52448,-7.73133 -36.98321,-7.21487 -12.03409,0.42985 -20.33463,2.36942 -30.25877,7.07053 -38.10046,18.04836 -55.75107,60.81326 -41.40559,100.31978 l 1.64864,4.54025 -5.8339,-0.2482 c -7.00848,-0.29818 -15.011784,0.78906 -23.133718,3.14271 -23.255506,6.73918 -42.887636,24.43287 -51.796819,46.6825 -14.919177,37.25887 -0.668791,79.028 33.915097,99.40811 12.616309,7.43472 22.126049,9.98201 39.81446,10.66473 7.29932,0.28173 73.93615,0.41187 148.08186,0.2892 120.71359,-0.19972 135.46773,-0.34164 141.09686,-1.35715 z"
     style="stroke-width:0.69849932;fill:#48505a;fill-opacity:0;opacity:1" /><path
     inkscape:connector-curvature="0"
     id="path4500"
     d="M 102.4,447.20068 C 83.832428,445.65767 65.785429,439.27604 49.663302,428.55239 39.857417,422.02998 26.066081,408.17144 19.407108,398.14873 10.911999,385.36239 5.6739526,372.88623 2.3857758,357.60676 0.11895988,347.07333 0.1052526,325.83819 2.3580952,314.7244 5.555692,298.94993 12.881094,282.23661 21.89939,270.13983 c 5.950811,-7.98217 16.237367,-18.2689 24.271415,-24.27183 7.042291,-5.26188 21.21305,-12.74688 28.694582,-15.15647 l 4.932705,-1.58869 0.835796,-11.25337 c 1.288543,-17.34926 4.470382,-29.44632 11.35433,-43.16807 15.539262,-30.97438 43.078482,-52.45216 76.982742,-60.03869 9.58826,-2.1455 30.94768,-2.55457 41.16278,-0.78833 l 7.49908,1.29663 5.25857,-6.08449 c 19.58434,-22.660321 45.46631,-37.444589 75.16432,-42.935272 7.9959,-1.478313 26.54518,-2.038264 35.40467,-1.068769 14.94737,1.635692 28.23177,5.441244 41.73976,11.957093 33.65783,16.235521 58.64825,46.368008 68.07198,82.078568 3.37219,12.7787 4.32626,21.3347 4.06709,36.4734 l -0.2298,13.42292 7.6835,5.21892 c 14.72509,10.00184 26.43973,21.81675 36.06692,36.37562 18.77762,28.39678 25.16615,63.68904 17.63084,97.39829 -9.68008,43.30386 -41.89681,78.95691 -84.01652,92.97793 -10.53328,3.50637 -19.84421,5.35084 -31.49843,6.23976 C 381.8012,448.0773 112.67789,448.0548 102.4,447.20067 Z m 297.90996,-32.40477 c 34.37335,-6.18706 62.96331,-30.32978 74.32119,-62.76035 3.82567,-10.9236 5.15838,-19.0392 5.1833,-31.56407 0.0254,-12.75282 -1.09231,-20.35148 -4.48288,-30.47706 -4.81346,-14.37488 -12.12817,-26.07354 -23.32683,-37.30736 -10.86105,-10.89515 -24.10476,-19.19281 -37.53922,-23.51966 -3.58406,-1.15433 -4.73035,-1.82212 -4.49808,-2.62046 0.17143,-0.58925 1.14971,-3.90029 2.17395,-7.35786 3.09005,-10.43122 4.071,-18.81291 3.6378,-31.08322 -0.54663,-15.48338 -3.14988,-25.71699 -10.03925,-39.46522 -13.06614,-26.07441 -37.7959,-44.86931 -67.24717,-51.108618 -8.35006,-1.768978 -28.6704,-1.768978 -37.02046,0 -13.99304,2.964448 -28.29532,9.375008 -39.23667,17.586628 -11.39105,8.54912 -22.64456,22.13057 -28.57759,34.48926 l -2.28638,4.76261 -6.37612,-3.0204 c -3.50686,-1.66121 -9.50121,-3.8927 -13.32076,-4.95885 -6.51718,-1.81915 -7.76153,-1.93545 -20.21613,-1.88932 -14.74125,0.0546 -18.52203,0.74338 -30.18854,5.49977 -9.81033,3.99963 -17.08223,8.95889 -25.65841,17.49841 -11.08586,11.03846 -17.1449,21.50864 -21.48673,37.12964 -1.32074,4.75177 -1.52561,7.28631 -1.54381,19.09955 -0.0221,14.3651 0.71845,19.07678 4.51079,28.69803 0.75544,1.91656 1.37357,3.5516 1.37362,3.63342 6e-5,0.0818 -2.65212,0.0388 -5.89372,-0.0958 -15.175748,-0.62958 -32.757654,4.87195 -46.97107,14.69768 -5.948067,4.11189 -15.488355,13.80395 -19.716476,20.03014 -14.24828,20.98152 -17.825572,46.92207 -9.781694,70.93143 8.859231,26.44304 30.793399,46.11884 58.963137,52.89223 6.675673,1.60516 30.796193,1.84388 164.496593,1.62803 120.2751,-0.19418 135.12435,-0.33646 140.74761,-1.34863 z"
     style="fill:#48505a;fill-opacity:0;stroke-width:0.69849932;opacity:1" /><path
     inkscape:connector-curvature="0"
     id="path4502"
     d="M 102.4,447.20068 C 83.832428,445.65767 65.785429,439.27604 49.663302,428.55239 39.857417,422.02998 26.066081,408.17144 19.407108,398.14873 10.911999,385.36239 5.6739526,372.88623 2.3857758,357.60676 0.11895988,347.07333 0.1052526,325.83819 2.3580952,314.7244 5.555692,298.94993 12.881094,282.23661 21.89939,270.13983 c 5.950811,-7.98217 16.237367,-18.2689 24.271415,-24.27183 7.042291,-5.26188 21.21305,-12.74688 28.694582,-15.15647 l 4.932705,-1.58869 0.835796,-11.25337 c 1.288543,-17.34926 4.470382,-29.44632 11.35433,-43.16807 15.539262,-30.97438 43.078482,-52.45216 76.982742,-60.03869 9.58826,-2.1455 30.94768,-2.55457 41.16278,-0.78833 l 7.49908,1.29663 5.25857,-6.08449 c 19.58434,-22.660321 45.46631,-37.444589 75.16432,-42.935272 7.9959,-1.478313 26.54518,-2.038264 35.40467,-1.068769 14.94737,1.635692 28.23177,5.441244 41.73976,11.957093 33.65783,16.235521 58.64825,46.368008 68.07198,82.078568 3.37219,12.7787 4.32626,21.3347 4.06709,36.4734 l -0.2298,13.42292 7.6835,5.21892 c 14.72509,10.00184 26.43973,21.81675 36.06692,36.37562 18.77762,28.39678 25.16615,63.68904 17.63084,97.39829 -9.68008,43.30386 -41.89681,78.95691 -84.01652,92.97793 -10.53328,3.50637 -19.84421,5.35084 -31.49843,6.23976 C 381.8012,448.0773 112.67789,448.0548 102.4,447.20067 Z m 297.90996,-32.40477 c 34.37335,-6.18706 62.96331,-30.32978 74.32119,-62.76035 3.82567,-10.9236 5.15838,-19.0392 5.1833,-31.56407 0.0254,-12.75282 -1.09231,-20.35148 -4.48288,-30.47706 -4.81346,-14.37488 -12.12817,-26.07354 -23.32683,-37.30736 -10.86105,-10.89515 -24.10476,-19.19281 -37.53922,-23.51966 -3.58406,-1.15433 -4.73035,-1.82212 -4.49808,-2.62046 0.17143,-0.58925 1.14971,-3.90029 2.17395,-7.35786 3.09005,-10.43122 4.071,-18.81291 3.6378,-31.08322 -0.54663,-15.48338 -3.14988,-25.71699 -10.03925,-39.46522 -13.06614,-26.07441 -37.7959,-44.86931 -67.24717,-51.108618 -8.35006,-1.768978 -28.6704,-1.768978 -37.02046,0 -13.99304,2.964448 -28.29532,9.375008 -39.23667,17.586628 -11.39105,8.54912 -22.64456,22.13057 -28.57759,34.48926 l -2.28638,4.76261 -6.37612,-3.0204 c -3.50686,-1.66121 -9.50121,-3.8927 -13.32076,-4.95885 -6.51718,-1.81915 -7.76153,-1.93545 -20.21613,-1.88932 -14.74125,0.0546 -18.52203,0.74338 -30.18854,5.49977 -9.81033,3.99963 -17.08223,8.95889 -25.65841,17.49841 -11.08586,11.03846 -17.1449,21.50864 -21.48673,37.12964 -1.32074,4.75177 -1.52561,7.28631 -1.54381,19.09955 -0.0221,14.3651 0.71845,19.07678 4.51079,28.69803 0.75544,1.91656 1.37357,3.5516 1.37362,3.63342 6e-5,0.0818 -2.65212,0.0388 -5.89372,-0.0958 -15.175748,-0.62958 -32.757654,4.87195 -46.97107,14.69768 -5.948067,4.11189 -15.488355,13.80395 -19.716476,20.03014 -14.24828,20.98152 -17.825572,46.92207 -9.781694,70.93143 8.859231,26.44304 30.793399,46.11884 58.963137,52.89223 6.675673,1.60516 30.796193,1.84388 164.496593,1.62803 120.2751,-0.19418 135.12435,-0.33646 140.74761,-1.34863 z"
     style="fill:#48505a;fill-opacity:0;stroke-width:0.69849932;opacity:1" /><path
     inkscape:connector-curvature="0"
     id="path4504"
     d="M 102.4,447.20068 C 83.832428,445.65767 65.785429,439.27604 49.663302,428.55239 39.857417,422.02998 26.066081,408.17144 19.407108,398.14873 10.911999,385.36239 5.6739526,372.88623 2.3857758,357.60676 0.11895988,347.07333 0.1052526,325.83819 2.3580952,314.7244 5.555692,298.94993 12.881094,282.23661 21.89939,270.13983 c 5.950811,-7.98217 16.237367,-18.2689 24.271415,-24.27183 7.042291,-5.26188 21.21305,-12.74688 28.694582,-15.15647 l 4.932705,-1.58869 0.835796,-11.25337 c 1.288543,-17.34926 4.470382,-29.44632 11.35433,-43.16807 15.539262,-30.97438 43.078482,-52.45216 76.982742,-60.03869 9.58826,-2.1455 30.94768,-2.55457 41.16278,-0.78833 l 7.49908,1.29663 5.25857,-6.08449 c 19.58434,-22.660321 45.46631,-37.444589 75.16432,-42.935272 7.9959,-1.478313 26.54518,-2.038264 35.40467,-1.068769 14.94737,1.635692 28.23177,5.441244 41.73976,11.957093 33.65783,16.235521 58.64825,46.368008 68.07198,82.078568 3.37219,12.7787 4.32626,21.3347 4.06709,36.4734 l -0.2298,13.42292 7.6835,5.21892 c 14.72509,10.00184 26.43973,21.81675 36.06692,36.37562 18.77762,28.39678 25.16615,63.68904 17.63084,97.39829 -9.68008,43.30386 -41.89681,78.95691 -84.01652,92.97793 -10.53328,3.50637 -19.84421,5.35084 -31.49843,6.23976 C 381.8012,448.0773 112.67789,448.0548 102.4,447.20067 Z m 297.90996,-32.40477 c 34.37335,-6.18706 62.96331,-30.32978 74.32119,-62.76035 3.82567,-10.9236 5.15838,-19.0392 5.1833,-31.56407 0.0254,-12.75282 -1.09231,-20.35148 -4.48288,-30.47706 -4.81346,-14.37488 -12.12817,-26.07354 -23.32683,-37.30736 -10.86105,-10.89515 -24.10476,-19.19281 -37.53922,-23.51966 -3.58406,-1.15433 -4.73035,-1.82212 -4.49808,-2.62046 0.17143,-0.58925 1.14971,-3.90029 2.17395,-7.35786 3.09005,-10.43122 4.071,-18.81291 3.6378,-31.08322 -0.54663,-15.48338 -3.14988,-25.71699 -10.03925,-39.46522 -13.06614,-26.07441 -37.7959,-44.86931 -67.24717,-51.108618 -8.35006,-1.768978 -28.6704,-1.768978 -37.02046,0 -13.99304,2.964448 -28.29532,9.375008 -39.23667,17.586628 -11.39105,8.54912 -22.64456,22.13057 -28.57759,34.48926 l -2.28638,4.76261 -6.37612,-3.0204 c -3.50686,-1.66121 -9.50121,-3.8927 -13.32076,-4.95885 -6.51718,-1.81915 -7.76153,-1.93545 -20.21613,-1.88932 -14.74125,0.0546 -18.52203,0.74338 -30.18854,5.49977 -9.81033,3.99963 -17.08223,8.95889 -25.65841,17.49841 -11.08586,11.03846 -17.1449,21.50864 -21.48673,37.12964 -1.32074,4.75177 -1.52561,7.28631 -1.54381,19.09955 -0.0221,14.3651 0.71845,19.07678 4.51079,28.69803 0.75544,1.91656 1.37357,3.5516 1.37362,3.63342 6e-5,0.0818 -2.65212,0.0388 -5.89372,-0.0958 -15.175748,-0.62958 -32.757654,4.87195 -46.97107,14.69768 -5.948067,4.11189 -15.488355,13.80395 -19.716476,20.03014 -14.24828,20.98152 -17.825572,46.92207 -9.781694,70.93143 8.859231,26.44304 30.793399,46.11884 58.963137,52.89223 6.675673,1.60516 30.796193,1.84388 164.496593,1.62803 120.2751,-0.19418 135.12435,-0.33646 140.74761,-1.34863 z"
     style="fill:#48505a;fill-opacity:0;stroke-width:0.69849932;opacity:1" /><path
     inkscape:connector-curvature="0"
     id="path4506"
     d="m 102.4,415.0573 c -32.491009,-4.16638 -59.037544,-27.39379 -67.56561,-59.11787 -1.660529,-6.1771 -1.839318,-8.06383 -1.871696,-19.75171 -0.03109,-11.22172 0.169118,-13.69285 1.521363,-18.77811 4.134376,-15.54777 10.234345,-26.1716 21.489784,-37.42704 8.558217,-8.55822 15.783518,-13.49285 25.64023,-17.51139 10.492355,-4.27769 16.407447,-5.45976 27.594449,-5.51447 5.47348,-0.0267 9.95261,-0.22424 9.95362,-0.43884 7e-4,-0.2146 -0.91614,-2.9055 -2.03811,-5.97979 -3.38673,-9.27986 -4.46402,-15.63486 -4.48538,-26.4595 -0.0437,-22.14455 7.59539,-40.65588 23.22901,-56.2895 23.89582,-23.89582 59.15541,-30.09135 89.25674,-15.68347 l 6.42425,3.07495 2.64091,-5.36545 c 9.13989,-18.56922 25.96939,-35.24993 44.39776,-44.00523 13.1624,-6.253448 26.42588,-9.201807 41.39522,-9.201807 10.74812,0 19.48584,1.293425 28.81483,4.265397 31.8502,10.14663 55.9207,35.8384 64.14762,68.46829 1.48638,5.8953 1.89091,9.44284 2.17952,19.11336 0.40281,13.49685 -0.47726,20.45741 -4.05195,32.04741 -1.17074,3.79579 -1.87099,7.12935 -1.55611,7.40791 0.31487,0.27855 2.30129,1.05115 4.41425,1.71689 13.5636,4.27352 29.23047,14.10308 39.16825,24.57455 9.83283,10.36089 18.9252,26.01948 22.66221,39.02813 5.55711,19.3445 4.82536,41.82851 -1.94367,59.7217 -11.33266,29.95665 -35.68275,51.75398 -66.87179,59.86121 -5.02066,1.30506 -9.6109,1.87086 -18.85948,2.32465 -15.65619,0.76817 -279.6482,0.69399 -285.68622,-0.0803 z"
     style="fill:#505963;fill-opacity:0;stroke-width:0.69849932;opacity:1" /><path
     inkscape:connector-curvature="0"
     id="path4508"
     d="M 102.4,447.20068 C 83.832428,445.65767 65.785429,439.27604 49.663302,428.55239 39.857417,422.02998 26.066081,408.17144 19.407108,398.14873 10.911999,385.36239 5.6739526,372.88623 2.3857758,357.60676 0.11895988,347.07333 0.1052526,325.83819 2.3580952,314.7244 5.555692,298.94993 12.881094,282.23661 21.89939,270.13983 c 5.950811,-7.98217 16.237367,-18.2689 24.271415,-24.27183 7.042291,-5.26188 21.21305,-12.74688 28.694582,-15.15647 l 4.932705,-1.58869 0.835796,-11.25337 c 1.288543,-17.34926 4.470382,-29.44632 11.35433,-43.16807 15.539262,-30.97438 43.078482,-52.45216 76.982742,-60.03869 9.58826,-2.1455 30.94768,-2.55457 41.16278,-0.78833 l 7.49908,1.29663 5.25857,-6.08449 c 19.58434,-22.660321 45.46631,-37.444589 75.16432,-42.935272 7.9959,-1.478313 26.54518,-2.038264 35.40467,-1.068769 14.94737,1.635692 28.23177,5.441244 41.73976,11.957093 33.65783,16.235521 58.64825,46.368008 68.07198,82.078568 3.37219,12.7787 4.32626,21.3347 4.06709,36.4734 l -0.2298,13.42292 7.6835,5.21892 c 14.72509,10.00184 26.43973,21.81675 36.06692,36.37562 18.77762,28.39678 25.16615,63.68904 17.63084,97.39829 -9.68008,43.30386 -41.89681,78.95691 -84.01652,92.97793 -10.53328,3.50637 -19.84421,5.35084 -31.49843,6.23976 C 381.8012,448.0773 112.67789,448.0548 102.4,447.20067 Z m 297.90996,-32.40477 c 34.37335,-6.18706 62.96331,-30.32978 74.32119,-62.76035 3.82567,-10.9236 5.15838,-19.0392 5.1833,-31.56407 0.0254,-12.75282 -1.09231,-20.35148 -4.48288,-30.47706 -4.81346,-14.37488 -12.12817,-26.07354 -23.32683,-37.30736 -10.86105,-10.89515 -24.10476,-19.19281 -37.53922,-23.51966 -3.58406,-1.15433 -4.73035,-1.82212 -4.49808,-2.62046 0.17143,-0.58925 1.14971,-3.90029 2.17395,-7.35786 3.09005,-10.43122 4.071,-18.81291 3.6378,-31.08322 -0.54663,-15.48338 -3.14988,-25.71699 -10.03925,-39.46522 -13.06614,-26.07441 -37.7959,-44.86931 -67.24717,-51.108618 -8.35006,-1.768978 -28.6704,-1.768978 -37.02046,0 -13.99304,2.964448 -28.29532,9.375008 -39.23667,17.586628 -11.39105,8.54912 -22.64456,22.13057 -28.57759,34.48926 l -2.28638,4.76261 -6.37612,-3.0204 c -3.50686,-1.66121 -9.50121,-3.8927 -13.32076,-4.95885 -6.51718,-1.81915 -7.76153,-1.93545 -20.21613,-1.88932 -14.74125,0.0546 -18.52203,0.74338 -30.18854,5.49977 -9.81033,3.99963 -17.08223,8.95889 -25.65841,17.49841 -11.08586,11.03846 -17.1449,21.50864 -21.48673,37.12964 -1.32074,4.75177 -1.52561,7.28631 -1.54381,19.09955 -0.0221,14.3651 0.71845,19.07678 4.51079,28.69803 0.75544,1.91656 1.37357,3.5516 1.37362,3.63342 6e-5,0.0818 -2.65212,0.0388 -5.89372,-0.0958 -15.175748,-0.62958 -32.757654,4.87195 -46.97107,14.69768 -5.948067,4.11189 -15.488355,13.80395 -19.716476,20.03014 -14.24828,20.98152 -17.825572,46.92207 -9.781694,70.93143 8.859231,26.44304 30.793399,46.11884 58.963137,52.89223 6.675673,1.60516 30.796193,1.84388 164.496593,1.62803 120.2751,-0.19418 135.12435,-0.33646 140.74761,-1.34863 z"
     style="fill:#000000;fill-opacity:1;stroke-width:0.69849932;stroke:#48505a;stroke-opacity:0;opacity:1" /><path
     inkscape:connector-curvature="0"
     id="path4512"
     d="M 102.4,447.20068 C 75.996118,445.00646 52.840521,434.11687 33.547345,414.82076 16.848425,398.11929 7.3835751,380.80185 2.4051581,357.8412 1.0299064,351.49848 0.81691004,348.5239 0.82964326,335.83847 0.84627279,319.27151 1.8151124,313.02055 6.4210709,299.76255 12.112548,283.37993 20.587886,269.95639 33.248568,257.2722 45.329258,245.1691 57.419446,237.30979 73.063029,231.39055 l 6.635743,-2.51085 0.849906,-10.78255 c 1.396559,-17.71781 4.562647,-29.71612 11.488833,-43.5385 16.091399,-32.1131 46.108599,-54.60366 80.790619,-60.53285 10.42554,-1.78234 27.52662,-1.81825 37.67636,-0.0791 l 7.17135,1.22878 4.56624,-5.41098 c 13.59816,-16.113788 31.55001,-28.926529 51.81616,-36.982659 7.87138,-3.129006 22.38633,-6.652394 31.48257,-7.642147 9.57656,-1.042014 28.02672,-0.530797 36.34239,1.006975 50.44542,9.328595 89.84446,46.219271 102.02164,95.526371 2.97365,12.04074 3.69303,19.19412 3.44681,34.27454 l -0.21356,13.08044 7.24347,4.91371 c 29.0101,19.67939 48.01648,47.81781 54.80798,81.14169 10.18488,49.97422 -11.31971,102.03551 -54.04738,130.84544 -18.3,12.3391 -39.37144,19.55747 -62.16644,21.29614 -11.17452,0.8523 -280.29783,0.8298 -290.57572,-0.0243 z m 291.27422,-31.77925 c 20.86108,-1.30014 44.93033,-13.17582 60.42733,-29.81461 12.54192,-13.466 21.33395,-30.86772 24.44063,-48.37441 1.67727,-9.45168 1.52751,-26.75877 -0.30955,-35.77338 -6.75823,-33.16319 -29.57455,-59.53252 -61.85719,-71.48972 -3.45757,-1.28065 -6.41272,-2.418 -6.56701,-2.52745 -0.15428,-0.10944 0.5438,-2.7969 1.5513,-5.97212 3.63051,-11.44191 4.20983,-15.42131 4.24697,-29.17288 0.0266,-9.84945 -0.26249,-14.33406 -1.21575,-18.85948 -8.09188,-38.41486 -36.97655,-67.35437 -75.7306,-75.874385 -7.62537,-1.676426 -29.74044,-1.674082 -37.37482,0.004 -25.83304,5.678135 -46.92334,19.916405 -61.16741,41.294715 -2.5597,3.84174 -5.55765,8.91073 -6.66211,11.26442 l -2.00811,4.27943 -5.67538,-2.64606 c -12.82967,-5.98164 -22.75535,-7.99452 -36.7586,-7.45447 -13.71836,0.52905 -21.7401,2.56613 -33.67948,8.5527 -22.43084,11.24714 -39.20477,34.70013 -42.51311,59.44102 -1.67672,12.53911 0.11759,29.59227 4.20466,39.96127 0.79172,2.00861 1.43949,3.72507 1.43949,3.81436 0,0.0893 -2.33106,0.0446 -5.18013,-0.0993 -14.3578,-0.72503 -33.385641,4.9434 -46.508551,13.85499 -14.523662,9.86284 -26.845867,26.99132 -31.713853,44.08385 -12.285063,43.13548 12.470491,87.0008 56.185519,99.55729 l 6.611289,1.899 31.432466,0.45546 c 35.15649,0.50941 255.11853,0.17307 264.382,-0.40427 z"
     style="fill:#555c65;fill-opacity:0;stroke:#48505a;stroke-width:0.69849932;stroke-opacity:0;opacity:1" /><path
     style="fill:#555c65;fill-opacity:0;stroke:#48505a;stroke-width:0.69849932;stroke-opacity:0"
     d="M 102.4,447.20068 C 75.996118,445.00646 52.840521,434.11687 33.547345,414.82076 16.848425,398.11929 7.3835751,380.80185 2.4051581,357.8412 1.0299064,351.49848 0.81691004,348.5239 0.82964326,335.83847 0.84627279,319.27151 1.8151124,313.02055 6.4210709,299.76255 12.112548,283.37993 20.587886,269.95639 33.248568,257.2722 45.329258,245.1691 57.419446,237.30979 73.063029,231.39055 l 6.635743,-2.51085 0.849906,-10.78255 c 1.396559,-17.71781 4.562647,-29.71612 11.488833,-43.5385 16.091399,-32.1131 46.108599,-54.60366 80.790619,-60.53285 10.42554,-1.78234 27.52662,-1.81825 37.67636,-0.0791 l 7.17135,1.22878 4.56624,-5.41098 c 13.59816,-16.113788 31.55001,-28.926529 51.81616,-36.982659 7.87138,-3.129006 22.38633,-6.652394 31.48257,-7.642147 9.57656,-1.042014 28.02672,-0.530797 36.34239,1.006975 50.44542,9.328595 89.84446,46.219271 102.02164,95.526371 2.97365,12.04074 3.69303,19.19412 3.44681,34.27454 l -0.21356,13.08044 7.24347,4.91371 c 29.0101,19.67939 48.01648,47.81781 54.80798,81.14169 10.18488,49.97422 -11.31971,102.03551 -54.04738,130.84544 -18.3,12.3391 -39.37144,19.55747 -62.16644,21.29614 -11.17452,0.8523 -280.29783,0.8298 -290.57572,-0.0243 z m 291.27422,-31.77925 c 20.86108,-1.30014 44.93033,-13.17582 60.42733,-29.81461 12.54192,-13.466 21.33395,-30.86772 24.44063,-48.37441 1.67727,-9.45168 1.52751,-26.75877 -0.30955,-35.77338 -6.75823,-33.16319 -29.57455,-59.53252 -61.85719,-71.48972 -3.45757,-1.28065 -6.41272,-2.418 -6.56701,-2.52745 -0.15428,-0.10944 0.5438,-2.7969 1.5513,-5.97212 3.63051,-11.44191 4.20983,-15.42131 4.24697,-29.17288 0.0266,-9.84945 -0.26249,-14.33406 -1.21575,-18.85948 -8.09188,-38.41486 -36.97655,-67.35437 -75.7306,-75.874385 -7.62537,-1.676426 -29.74044,-1.674082 -37.37482,0.004 -25.83304,5.678135 -46.92334,19.916405 -61.16741,41.294715 -2.5597,3.84174 -5.55765,8.91073 -6.66211,11.26442 l -2.00811,4.27943 -5.67538,-2.64606 c -12.82967,-5.98164 -22.75535,-7.99452 -36.7586,-7.45447 -13.71836,0.52905 -21.7401,2.56613 -33.67948,8.5527 -22.43084,11.24714 -39.20477,34.70013 -42.51311,59.44102 -1.67672,12.53911 0.11759,29.59227 4.20466,39.96127 0.79172,2.00861 1.43949,3.72507 1.43949,3.81436 0,0.0893 -2.33106,0.0446 -5.18013,-0.0993 -14.3578,-0.72503 -33.385641,4.9434 -46.508551,13.85499 -14.523662,9.86284 -26.845867,26.99132 -31.713853,44.08385 -12.285063,43.13548 12.470491,87.0008 56.185519,99.55729 l 6.611289,1.899 31.432466,0.45546 c 35.15649,0.50941 255.11853,0.17307 264.382,-0.40427 z"
     id="path4618"
     inkscape:connector-curvature="0" /><path
     style="fill:#555c65;fill-opacity:0;stroke:#48505a;stroke-width:0.69849932;stroke-opacity:0"
     d="M 106.591,415.13251 C 89.465589,414.11941 76.080736,408.87868 61.711174,397.5602 49.203779,387.70848 39.217283,372.24363 34.83439,355.93943 c -1.660529,-6.1771 -1.839318,-8.06383 -1.871696,-19.75171 -0.03109,-11.22172 0.169118,-13.69285 1.521363,-18.77811 4.134376,-15.54777 10.234345,-26.1716 21.489784,-37.42704 8.558217,-8.55822 15.783518,-13.49285 25.64023,-17.51139 10.492355,-4.27769 16.407447,-5.45976 27.594449,-5.51447 5.47348,-0.0267 9.95261,-0.15695 9.95362,-0.28931 7e-4,-0.13235 -1.0836,-3.43276 -2.41026,-7.33424 -3.16412,-9.30513 -3.86585,-14.09425 -3.85399,-26.30233 0.0214,-21.98445 7.35382,-39.585 22.96755,-55.13032 10.39078,-10.34525 21.68776,-16.9861 35.42725,-20.82566 6.50124,-1.8168 7.6913,-1.92478 20.86447,-1.89315 13.16503,0.0316 14.33222,0.14347 20.25648,1.94126 3.45757,1.04924 9.17741,3.29143 12.71076,4.98265 l 6.42425,3.07495 2.6078,-5.27776 c 13.57891,-27.48161 40.30755,-47.38968 70.10985,-52.219357 8.43621,-1.367149 22.91997,-1.379751 31.25958,-0.0272 32.16322,5.216357 60.12977,27.436437 72.85096,57.881797 4.64726,11.12221 6.31083,19.24925 6.73795,32.91708 0.4217,13.49424 -0.44901,20.39731 -4.04223,32.04741 -1.17074,3.79579 -1.87099,7.12487 -1.55611,7.39795 0.31487,0.27308 2.77277,1.21172 5.46199,2.08587 2.68923,0.87415 7.65739,2.9547 11.04036,4.62344 19.48932,9.61365 34.35247,24.51342 43.84371,43.95174 7.34944,15.05185 10.12831,28.26878 9.47248,45.0532 -0.79867,20.43974 -6.91913,37.70054 -19.11167,53.89831 -13.97986,18.57221 -33.66562,30.99521 -57.6242,36.36462 -6.43142,1.44135 -7.53604,1.45348 -146.87852,1.61182 -77.2191,0.0877 -144.32742,-0.0729 -149.1296,-0.35697 z"
     id="path4620"
     inkscape:connector-curvature="0" /><path
     style="fill:#555c65;fill-opacity:0;stroke:#48505a;stroke-width:0.69849932;stroke-opacity:0"
     d="M 102.4,447.20068 C 75.996118,445.00646 52.840521,434.11687 33.547345,414.82076 16.848425,398.11929 7.3835751,380.80185 2.4051581,357.8412 1.0299064,351.49848 0.81691004,348.5239 0.82964326,335.83847 0.84627279,319.27151 1.8151124,313.02055 6.4210709,299.76255 12.112548,283.37993 20.587886,269.95639 33.248568,257.2722 45.329258,245.1691 57.419446,237.30979 73.063029,231.39055 l 6.635743,-2.51085 0.849906,-10.78255 c 1.396559,-17.71781 4.562647,-29.71612 11.488833,-43.5385 16.091399,-32.1131 46.108599,-54.60366 80.790619,-60.53285 10.42554,-1.78234 27.52662,-1.81825 37.67636,-0.0791 l 7.17135,1.22878 4.56624,-5.41098 c 13.59816,-16.113788 31.55001,-28.926529 51.81616,-36.982659 7.87138,-3.129006 22.38633,-6.652394 31.48257,-7.642147 9.57656,-1.042014 28.02672,-0.530797 36.34239,1.006975 50.44542,9.328595 89.84446,46.219271 102.02164,95.526371 2.97365,12.04074 3.69303,19.19412 3.44681,34.27454 l -0.21356,13.08044 7.24347,4.91371 c 29.0101,19.67939 48.01648,47.81781 54.80798,81.14169 10.18488,49.97422 -11.31971,102.03551 -54.04738,130.84544 -18.3,12.3391 -39.37144,19.55747 -62.16644,21.29614 -11.17452,0.8523 -280.29783,0.8298 -290.57572,-0.0243 z m 291.27422,-31.77925 c 20.86108,-1.30014 44.93033,-13.17582 60.42733,-29.81461 12.54192,-13.466 21.33395,-30.86772 24.44063,-48.37441 1.67727,-9.45168 1.52751,-26.75877 -0.30955,-35.77338 -6.75823,-33.16319 -29.57455,-59.53252 -61.85719,-71.48972 -3.45757,-1.28065 -6.41272,-2.418 -6.56701,-2.52745 -0.15428,-0.10944 0.5438,-2.7969 1.5513,-5.97212 3.63051,-11.44191 4.20983,-15.42131 4.24697,-29.17288 0.0266,-9.84945 -0.26249,-14.33406 -1.21575,-18.85948 -8.09188,-38.41486 -36.97655,-67.35437 -75.7306,-75.874385 -7.62537,-1.676426 -29.74044,-1.674082 -37.37482,0.004 -25.83304,5.678135 -46.92334,19.916405 -61.16741,41.294715 -2.5597,3.84174 -5.55765,8.91073 -6.66211,11.26442 l -2.00811,4.27943 -5.67538,-2.64606 c -12.82967,-5.98164 -22.75535,-7.99452 -36.7586,-7.45447 -13.71836,0.52905 -21.7401,2.56613 -33.67948,8.5527 -22.43084,11.24714 -39.20477,34.70013 -42.51311,59.44102 -1.67672,12.53911 0.11759,29.59227 4.20466,39.96127 0.79172,2.00861 1.43949,3.72507 1.43949,3.81436 0,0.0893 -2.33106,0.0446 -5.18013,-0.0993 -14.3578,-0.72503 -33.385641,4.9434 -46.508551,13.85499 -14.523662,9.86284 -26.845867,26.99132 -31.713853,44.08385 -12.285063,43.13548 12.470491,87.0008 56.185519,99.55729 l 6.611289,1.899 31.432466,0.45546 c 35.15649,0.50941 255.11853,0.17307 264.382,-0.40427 z"
     id="path4622"
     inkscape:connector-curvature="0" /><path
     style="fill:#555c65;fill-opacity:0;stroke:#48505a;stroke-width:0.69849932;stroke-opacity:0"
     d="M 106.591,415.13251 C 89.465589,414.11941 76.080736,408.87868 61.711174,397.5602 49.203779,387.70848 39.217283,372.24363 34.83439,355.93943 c -1.660529,-6.1771 -1.839318,-8.06383 -1.871696,-19.75171 -0.03109,-11.22172 0.169118,-13.69285 1.521363,-18.77811 4.134376,-15.54777 10.234345,-26.1716 21.489784,-37.42704 8.558217,-8.55822 15.783518,-13.49285 25.64023,-17.51139 10.492355,-4.27769 16.407447,-5.45976 27.594449,-5.51447 5.47348,-0.0267 9.95261,-0.15695 9.95362,-0.28931 7e-4,-0.13235 -1.0836,-3.43276 -2.41026,-7.33424 -3.16412,-9.30513 -3.86585,-14.09425 -3.85399,-26.30233 0.0214,-21.98445 7.35382,-39.585 22.96755,-55.13032 10.39078,-10.34525 21.68776,-16.9861 35.42725,-20.82566 6.50124,-1.8168 7.6913,-1.92478 20.86447,-1.89315 13.16503,0.0316 14.33222,0.14347 20.25648,1.94126 3.45757,1.04924 9.17741,3.29143 12.71076,4.98265 l 6.42425,3.07495 2.6078,-5.27776 c 13.57891,-27.48161 40.30755,-47.38968 70.10985,-52.219357 8.43621,-1.367149 22.91997,-1.379751 31.25958,-0.0272 32.16322,5.216357 60.12977,27.436437 72.85096,57.881797 4.64726,11.12221 6.31083,19.24925 6.73795,32.91708 0.4217,13.49424 -0.44901,20.39731 -4.04223,32.04741 -1.17074,3.79579 -1.87099,7.12487 -1.55611,7.39795 0.31487,0.27308 2.77277,1.21172 5.46199,2.08587 2.68923,0.87415 7.65739,2.9547 11.04036,4.62344 19.48932,9.61365 34.35247,24.51342 43.84371,43.95174 7.34944,15.05185 10.12831,28.26878 9.47248,45.0532 -0.79867,20.43974 -6.91913,37.70054 -19.11167,53.89831 -13.97986,18.57221 -33.66562,30.99521 -57.6242,36.36462 -6.43142,1.44135 -7.53604,1.45348 -146.87852,1.61182 -77.2191,0.0877 -144.32742,-0.0729 -149.1296,-0.35697 z"
     id="path4624"
     inkscape:connector-curvature="0" /><path
     style="fill:#555c65;fill-opacity:0;stroke:#48505a;stroke-width:0.69849932;stroke-opacity:0"
     d="M 102.4,447.20068 C 75.996118,445.00646 52.840521,434.11687 33.547345,414.82076 16.848425,398.11929 7.3835751,380.80185 2.4051581,357.8412 1.0299064,351.49848 0.81691004,348.5239 0.82964326,335.83847 0.84627279,319.27151 1.8151124,313.02055 6.4210709,299.76255 12.112548,283.37993 20.587886,269.95639 33.248568,257.2722 45.329258,245.1691 57.419446,237.30979 73.063029,231.39055 l 6.635743,-2.51085 0.849906,-10.78255 c 1.396559,-17.71781 4.562647,-29.71612 11.488833,-43.5385 16.091399,-32.1131 46.108599,-54.60366 80.790619,-60.53285 10.42554,-1.78234 27.52662,-1.81825 37.67636,-0.0791 l 7.17135,1.22878 4.56624,-5.41098 c 13.59816,-16.113788 31.55001,-28.926529 51.81616,-36.982659 7.87138,-3.129006 22.38633,-6.652394 31.48257,-7.642147 9.57656,-1.042014 28.02672,-0.530797 36.34239,1.006975 50.44542,9.328595 89.84446,46.219271 102.02164,95.526371 2.97365,12.04074 3.69303,19.19412 3.44681,34.27454 l -0.21356,13.08044 7.24347,4.91371 c 29.0101,19.67939 48.01648,47.81781 54.80798,81.14169 10.18488,49.97422 -11.31971,102.03551 -54.04738,130.84544 -18.3,12.3391 -39.37144,19.55747 -62.16644,21.29614 -11.17452,0.8523 -280.29783,0.8298 -290.57572,-0.0243 z m 291.27422,-31.77925 c 20.86108,-1.30014 44.93033,-13.17582 60.42733,-29.81461 12.54192,-13.466 21.33395,-30.86772 24.44063,-48.37441 1.67727,-9.45168 1.52751,-26.75877 -0.30955,-35.77338 -6.75823,-33.16319 -29.57455,-59.53252 -61.85719,-71.48972 -3.45757,-1.28065 -6.41272,-2.418 -6.56701,-2.52745 -0.15428,-0.10944 0.5438,-2.7969 1.5513,-5.97212 3.63051,-11.44191 4.20983,-15.42131 4.24697,-29.17288 0.0266,-9.84945 -0.26249,-14.33406 -1.21575,-18.85948 -8.09188,-38.41486 -36.97655,-67.35437 -75.7306,-75.874385 -7.62537,-1.676426 -29.74044,-1.674082 -37.37482,0.004 -25.83304,5.678135 -46.92334,19.916405 -61.16741,41.294715 -2.5597,3.84174 -5.55765,8.91073 -6.66211,11.26442 l -2.00811,4.27943 -5.67538,-2.64606 c -12.82967,-5.98164 -22.75535,-7.99452 -36.7586,-7.45447 -13.71836,0.52905 -21.7401,2.56613 -33.67948,8.5527 -22.43084,11.24714 -39.20477,34.70013 -42.51311,59.44102 -1.67672,12.53911 0.11759,29.59227 4.20466,39.96127 0.79172,2.00861 1.43949,3.72507 1.43949,3.81436 0,0.0893 -2.33106,0.0446 -5.18013,-0.0993 -14.3578,-0.72503 -33.385641,4.9434 -46.508551,13.85499 -14.523662,9.86284 -26.845867,26.99132 -31.713853,44.08385 -12.285063,43.13548 12.470491,87.0008 56.185519,99.55729 l 6.611289,1.899 31.432466,0.45546 c 35.15649,0.50941 255.11853,0.17307 264.382,-0.40427 z"
     id="path4626"
     inkscape:connector-curvature="0" /><path
     style="fill:#555c65;fill-opacity:0;stroke:#48505a;stroke-width:0.69849932;stroke-opacity:0"
     d="M 102.4,447.20068 C 75.996118,445.00646 52.840521,434.11687 33.547345,414.82076 16.848425,398.11929 7.3835751,380.80185 2.4051581,357.8412 1.0299064,351.49848 0.81691004,348.5239 0.82964326,335.83847 0.84627279,319.27151 1.8151124,313.02055 6.4210709,299.76255 12.112548,283.37993 20.587886,269.95639 33.248568,257.2722 45.329258,245.1691 57.419446,237.30979 73.063029,231.39055 l 6.635743,-2.51085 0.849906,-10.78255 c 1.396559,-17.71781 4.562647,-29.71612 11.488833,-43.5385 16.091399,-32.1131 46.108599,-54.60366 80.790619,-60.53285 10.42554,-1.78234 27.52662,-1.81825 37.67636,-0.0791 l 7.17135,1.22878 4.56624,-5.41098 c 13.59816,-16.113788 31.55001,-28.926529 51.81616,-36.982659 7.87138,-3.129006 22.38633,-6.652394 31.48257,-7.642147 9.57656,-1.042014 28.02672,-0.530797 36.34239,1.006975 50.44542,9.328595 89.84446,46.219271 102.02164,95.526371 2.97365,12.04074 3.69303,19.19412 3.44681,34.27454 l -0.21356,13.08044 7.24347,4.91371 c 29.0101,19.67939 48.01648,47.81781 54.80798,81.14169 10.18488,49.97422 -11.31971,102.03551 -54.04738,130.84544 -18.3,12.3391 -39.37144,19.55747 -62.16644,21.29614 -11.17452,0.8523 -280.29783,0.8298 -290.57572,-0.0243 z m 291.27422,-31.77925 c 20.86108,-1.30014 44.93033,-13.17582 60.42733,-29.81461 12.54192,-13.466 21.33395,-30.86772 24.44063,-48.37441 1.67727,-9.45168 1.52751,-26.75877 -0.30955,-35.77338 -6.75823,-33.16319 -29.57455,-59.53252 -61.85719,-71.48972 -3.45757,-1.28065 -6.41272,-2.418 -6.56701,-2.52745 -0.15428,-0.10944 0.5438,-2.7969 1.5513,-5.97212 3.63051,-11.44191 4.20983,-15.42131 4.24697,-29.17288 0.0266,-9.84945 -0.26249,-14.33406 -1.21575,-18.85948 -8.09188,-38.41486 -36.97655,-67.35437 -75.7306,-75.874385 -7.62537,-1.676426 -29.74044,-1.674082 -37.37482,0.004 -25.83304,5.678135 -46.92334,19.916405 -61.16741,41.294715 -2.5597,3.84174 -5.55765,8.91073 -6.66211,11.26442 l -2.00811,4.27943 -5.67538,-2.64606 c -12.82967,-5.98164 -22.75535,-7.99452 -36.7586,-7.45447 -13.71836,0.52905 -21.7401,2.56613 -33.67948,8.5527 -22.43084,11.24714 -39.20477,34.70013 -42.51311,59.44102 -1.67672,12.53911 0.11759,29.59227 4.20466,39.96127 0.79172,2.00861 1.43949,3.72507 1.43949,3.81436 0,0.0893 -2.33106,0.0446 -5.18013,-0.0993 -14.3578,-0.72503 -33.385641,4.9434 -46.508551,13.85499 -14.523662,9.86284 -26.845867,26.99132 -31.713853,44.08385 -12.285063,43.13548 12.470491,87.0008 56.185519,99.55729 l 6.611289,1.899 31.432466,0.45546 c 35.15649,0.50941 255.11853,0.17307 264.382,-0.40427 z"
     id="path4628"
     inkscape:connector-curvature="0" /><path
     style="fill:#555c65;fill-opacity:0;stroke:#48505a;stroke-width:0.69849932;stroke-opacity:0"
     d="M 102.4,447.20068 C 75.996118,445.00646 52.840521,434.11687 33.547345,414.82076 16.848425,398.11929 7.3835751,380.80185 2.4051581,357.8412 1.0299064,351.49848 0.81691004,348.5239 0.82964326,335.83847 0.84627279,319.27151 1.8151124,313.02055 6.4210709,299.76255 12.112548,283.37993 20.587886,269.95639 33.248568,257.2722 45.329258,245.1691 57.419446,237.30979 73.063029,231.39055 l 6.635743,-2.51085 0.849906,-10.78255 c 1.396559,-17.71781 4.562647,-29.71612 11.488833,-43.5385 16.091399,-32.1131 46.108599,-54.60366 80.790619,-60.53285 10.42554,-1.78234 27.52662,-1.81825 37.67636,-0.0791 l 7.17135,1.22878 4.56624,-5.41098 c 13.59816,-16.113788 31.55001,-28.926529 51.81616,-36.982659 7.87138,-3.129006 22.38633,-6.652394 31.48257,-7.642147 9.57656,-1.042014 28.02672,-0.530797 36.34239,1.006975 50.44542,9.328595 89.84446,46.219271 102.02164,95.526371 2.97365,12.04074 3.69303,19.19412 3.44681,34.27454 l -0.21356,13.08044 7.24347,4.91371 c 29.0101,19.67939 48.01648,47.81781 54.80798,81.14169 10.18488,49.97422 -11.31971,102.03551 -54.04738,130.84544 -18.3,12.3391 -39.37144,19.55747 -62.16644,21.29614 -11.17452,0.8523 -280.29783,0.8298 -290.57572,-0.0243 z m 291.27422,-31.77925 c 20.86108,-1.30014 44.93033,-13.17582 60.42733,-29.81461 12.54192,-13.466 21.33395,-30.86772 24.44063,-48.37441 1.67727,-9.45168 1.52751,-26.75877 -0.30955,-35.77338 -6.75823,-33.16319 -29.57455,-59.53252 -61.85719,-71.48972 -3.45757,-1.28065 -6.41272,-2.418 -6.56701,-2.52745 -0.15428,-0.10944 0.5438,-2.7969 1.5513,-5.97212 3.63051,-11.44191 4.20983,-15.42131 4.24697,-29.17288 0.0266,-9.84945 -0.26249,-14.33406 -1.21575,-18.85948 -8.09188,-38.41486 -36.97655,-67.35437 -75.7306,-75.874385 -7.62537,-1.676426 -29.74044,-1.674082 -37.37482,0.004 -25.83304,5.678135 -46.92334,19.916405 -61.16741,41.294715 -2.5597,3.84174 -5.55765,8.91073 -6.66211,11.26442 l -2.00811,4.27943 -5.67538,-2.64606 c -12.82967,-5.98164 -22.75535,-7.99452 -36.7586,-7.45447 -13.71836,0.52905 -21.7401,2.56613 -33.67948,8.5527 -22.43084,11.24714 -39.20477,34.70013 -42.51311,59.44102 -1.67672,12.53911 0.11759,29.59227 4.20466,39.96127 0.79172,2.00861 1.43949,3.72507 1.43949,3.81436 0,0.0893 -2.33106,0.0446 -5.18013,-0.0993 -14.3578,-0.72503 -33.385641,4.9434 -46.508551,13.85499 -14.523662,9.86284 -26.845867,26.99132 -31.713853,44.08385 -12.285063,43.13548 12.470491,87.0008 56.185519,99.55729 l 6.611289,1.899 31.432466,0.45546 c 35.15649,0.50941 255.11853,0.17307 264.382,-0.40427 z"
     id="path4630"
     inkscape:connector-curvature="0" /><path
     style="fill:#555c65;fill-opacity:0;stroke:#48505a;stroke-width:0.69849932;stroke-opacity:0"
     d="M 102.4,447.20068 C 75.996118,445.00646 52.840521,434.11687 33.547345,414.82076 16.848425,398.11929 7.3835751,380.80185 2.4051581,357.8412 1.0299064,351.49848 0.81691004,348.5239 0.82964326,335.83847 0.84627279,319.27151 1.8151124,313.02055 6.4210709,299.76255 12.112548,283.37993 20.587886,269.95639 33.248568,257.2722 45.329258,245.1691 57.419446,237.30979 73.063029,231.39055 l 6.635743,-2.51085 0.849906,-10.78255 c 1.396559,-17.71781 4.562647,-29.71612 11.488833,-43.5385 16.091399,-32.1131 46.108599,-54.60366 80.790619,-60.53285 10.42554,-1.78234 27.52662,-1.81825 37.67636,-0.0791 l 7.17135,1.22878 4.56624,-5.41098 c 13.59816,-16.113788 31.55001,-28.926529 51.81616,-36.982659 7.87138,-3.129006 22.38633,-6.652394 31.48257,-7.642147 9.57656,-1.042014 28.02672,-0.530797 36.34239,1.006975 50.44542,9.328595 89.84446,46.219271 102.02164,95.526371 2.97365,12.04074 3.69303,19.19412 3.44681,34.27454 l -0.21356,13.08044 7.24347,4.91371 c 29.0101,19.67939 48.01648,47.81781 54.80798,81.14169 10.18488,49.97422 -11.31971,102.03551 -54.04738,130.84544 -18.3,12.3391 -39.37144,19.55747 -62.16644,21.29614 -11.17452,0.8523 -280.29783,0.8298 -290.57572,-0.0243 z m 291.27422,-31.77925 c 20.86108,-1.30014 44.93033,-13.17582 60.42733,-29.81461 12.54192,-13.466 21.33395,-30.86772 24.44063,-48.37441 1.67727,-9.45168 1.52751,-26.75877 -0.30955,-35.77338 -6.75823,-33.16319 -29.57455,-59.53252 -61.85719,-71.48972 -3.45757,-1.28065 -6.41272,-2.418 -6.56701,-2.52745 -0.15428,-0.10944 0.5438,-2.7969 1.5513,-5.97212 3.63051,-11.44191 4.20983,-15.42131 4.24697,-29.17288 0.0266,-9.84945 -0.26249,-14.33406 -1.21575,-18.85948 -8.09188,-38.41486 -36.97655,-67.35437 -75.7306,-75.874385 -7.62537,-1.676426 -29.74044,-1.674082 -37.37482,0.004 -25.83304,5.678135 -46.92334,19.916405 -61.16741,41.294715 -2.5597,3.84174 -5.55765,8.91073 -6.66211,11.26442 l -2.00811,4.27943 -5.67538,-2.64606 c -12.82967,-5.98164 -22.75535,-7.99452 -36.7586,-7.45447 -13.71836,0.52905 -21.7401,2.56613 -33.67948,8.5527 -22.43084,11.24714 -39.20477,34.70013 -42.51311,59.44102 -1.67672,12.53911 0.11759,29.59227 4.20466,39.96127 0.79172,2.00861 1.43949,3.72507 1.43949,3.81436 0,0.0893 -2.33106,0.0446 -5.18013,-0.0993 -14.3578,-0.72503 -33.385641,4.9434 -46.508551,13.85499 -14.523662,9.86284 -26.845867,26.99132 -31.713853,44.08385 -12.285063,43.13548 12.470491,87.0008 56.185519,99.55729 l 6.611289,1.899 31.432466,0.45546 c 35.15649,0.50941 255.11853,0.17307 264.382,-0.40427 z"
     id="path4632"
     inkscape:connector-curvature="0" /><path
     style="fill:#555c65;fill-opacity:0;stroke:#48505a;stroke-width:0.69849932;stroke-opacity:0"
     d="M 102.4,447.20068 C 75.996118,445.00646 52.840521,434.11687 33.547345,414.82076 16.848425,398.11929 7.3835751,380.80185 2.4051581,357.8412 1.0299064,351.49848 0.81691004,348.5239 0.82964326,335.83847 0.84627279,319.27151 1.8151124,313.02055 6.4210709,299.76255 12.112548,283.37993 20.587886,269.95639 33.248568,257.2722 45.329258,245.1691 57.419446,237.30979 73.063029,231.39055 l 6.635743,-2.51085 0.849906,-10.78255 c 1.396559,-17.71781 4.562647,-29.71612 11.488833,-43.5385 16.091399,-32.1131 46.108599,-54.60366 80.790619,-60.53285 10.42554,-1.78234 27.52662,-1.81825 37.67636,-0.0791 l 7.17135,1.22878 4.56624,-5.41098 c 13.59816,-16.113788 31.55001,-28.926529 51.81616,-36.982659 7.87138,-3.129006 22.38633,-6.652394 31.48257,-7.642147 9.57656,-1.042014 28.02672,-0.530797 36.34239,1.006975 50.44542,9.328595 89.84446,46.219271 102.02164,95.526371 2.97365,12.04074 3.69303,19.19412 3.44681,34.27454 l -0.21356,13.08044 7.24347,4.91371 c 29.0101,19.67939 48.01648,47.81781 54.80798,81.14169 10.18488,49.97422 -11.31971,102.03551 -54.04738,130.84544 -18.3,12.3391 -39.37144,19.55747 -62.16644,21.29614 -11.17452,0.8523 -280.29783,0.8298 -290.57572,-0.0243 z m 291.27422,-31.77925 c 20.86108,-1.30014 44.93033,-13.17582 60.42733,-29.81461 12.54192,-13.466 21.33395,-30.86772 24.44063,-48.37441 1.67727,-9.45168 1.52751,-26.75877 -0.30955,-35.77338 -6.75823,-33.16319 -29.57455,-59.53252 -61.85719,-71.48972 -3.45757,-1.28065 -6.41272,-2.418 -6.56701,-2.52745 -0.15428,-0.10944 0.5438,-2.7969 1.5513,-5.97212 3.63051,-11.44191 4.20983,-15.42131 4.24697,-29.17288 0.0266,-9.84945 -0.26249,-14.33406 -1.21575,-18.85948 -8.09188,-38.41486 -36.97655,-67.35437 -75.7306,-75.874385 -7.62537,-1.676426 -29.74044,-1.674082 -37.37482,0.004 -25.83304,5.678135 -46.92334,19.916405 -61.16741,41.294715 -2.5597,3.84174 -5.55765,8.91073 -6.66211,11.26442 l -2.00811,4.27943 -5.67538,-2.64606 c -12.82967,-5.98164 -22.75535,-7.99452 -36.7586,-7.45447 -13.71836,0.52905 -21.7401,2.56613 -33.67948,8.5527 -22.43084,11.24714 -39.20477,34.70013 -42.51311,59.44102 -1.67672,12.53911 0.11759,29.59227 4.20466,39.96127 0.79172,2.00861 1.43949,3.72507 1.43949,3.81436 0,0.0893 -2.33106,0.0446 -5.18013,-0.0993 -14.3578,-0.72503 -33.385641,4.9434 -46.508551,13.85499 -14.523662,9.86284 -26.845867,26.99132 -31.713853,44.08385 -12.285063,43.13548 12.470491,87.0008 56.185519,99.55729 l 6.611289,1.899 31.432466,0.45546 c 35.15649,0.50941 255.11853,0.17307 264.382,-0.40427 z"
     id="path4634"
     inkscape:connector-curvature="0" /><path
     style="fill:#555c65;fill-opacity:0;stroke:#48505a;stroke-width:0.69849932;stroke-opacity:0"
     d="M 102.4,447.20068 C 75.996118,445.00646 52.840521,434.11687 33.547345,414.82076 16.848425,398.11929 7.3835751,380.80185 2.4051581,357.8412 1.0299064,351.49848 0.81691004,348.5239 0.82964326,335.83847 0.84627279,319.27151 1.8151124,313.02055 6.4210709,299.76255 12.112548,283.37993 20.587886,269.95639 33.248568,257.2722 45.329258,245.1691 57.419446,237.30979 73.063029,231.39055 l 6.635743,-2.51085 0.849906,-10.78255 c 1.396559,-17.71781 4.562647,-29.71612 11.488833,-43.5385 16.091399,-32.1131 46.108599,-54.60366 80.790619,-60.53285 10.42554,-1.78234 27.52662,-1.81825 37.67636,-0.0791 l 7.17135,1.22878 4.56624,-5.41098 c 13.59816,-16.113788 31.55001,-28.926529 51.81616,-36.982659 7.87138,-3.129006 22.38633,-6.652394 31.48257,-7.642147 9.57656,-1.042014 28.02672,-0.530797 36.34239,1.006975 50.44542,9.328595 89.84446,46.219271 102.02164,95.526371 2.97365,12.04074 3.69303,19.19412 3.44681,34.27454 l -0.21356,13.08044 7.24347,4.91371 c 29.0101,19.67939 48.01648,47.81781 54.80798,81.14169 10.18488,49.97422 -11.31971,102.03551 -54.04738,130.84544 -18.3,12.3391 -39.37144,19.55747 -62.16644,21.29614 -11.17452,0.8523 -280.29783,0.8298 -290.57572,-0.0243 z m 291.27422,-31.77925 c 20.86108,-1.30014 44.93033,-13.17582 60.42733,-29.81461 12.54192,-13.466 21.33395,-30.86772 24.44063,-48.37441 1.67727,-9.45168 1.52751,-26.75877 -0.30955,-35.77338 -6.75823,-33.16319 -29.57455,-59.53252 -61.85719,-71.48972 -3.45757,-1.28065 -6.41272,-2.418 -6.56701,-2.52745 -0.15428,-0.10944 0.5438,-2.7969 1.5513,-5.97212 3.63051,-11.44191 4.20983,-15.42131 4.24697,-29.17288 0.0266,-9.84945 -0.26249,-14.33406 -1.21575,-18.85948 -8.09188,-38.41486 -36.97655,-67.35437 -75.7306,-75.874385 -7.62537,-1.676426 -29.74044,-1.674082 -37.37482,0.004 -25.83304,5.678135 -46.92334,19.916405 -61.16741,41.294715 -2.5597,3.84174 -5.55765,8.91073 -6.66211,11.26442 l -2.00811,4.27943 -5.67538,-2.64606 c -12.82967,-5.98164 -22.75535,-7.99452 -36.7586,-7.45447 -13.71836,0.52905 -21.7401,2.56613 -33.67948,8.5527 -22.43084,11.24714 -39.20477,34.70013 -42.51311,59.44102 -1.67672,12.53911 0.11759,29.59227 4.20466,39.96127 0.79172,2.00861 1.43949,3.72507 1.43949,3.81436 0,0.0893 -2.33106,0.0446 -5.18013,-0.0993 -14.3578,-0.72503 -33.385641,4.9434 -46.508551,13.85499 -14.523662,9.86284 -26.845867,26.99132 -31.713853,44.08385 -12.285063,43.13548 12.470491,87.0008 56.185519,99.55729 l 6.611289,1.899 31.432466,0.45546 c 35.15649,0.50941 255.11853,0.17307 264.382,-0.40427 z"
     id="path4636"
     inkscape:connector-curvature="0" /><path
     style="fill:#555c65;fill-opacity:0;stroke:#48505a;stroke-width:0.69849932;stroke-opacity:0"
     d="M 102.4,447.20068 C 75.996118,445.00646 52.840521,434.11687 33.547345,414.82076 16.848425,398.11929 7.3835751,380.80185 2.4051581,357.8412 1.0299064,351.49848 0.81691004,348.5239 0.82964326,335.83847 0.84627279,319.27151 1.8151124,313.02055 6.4210709,299.76255 12.112548,283.37993 20.587886,269.95639 33.248568,257.2722 45.329258,245.1691 57.419446,237.30979 73.063029,231.39055 l 6.635743,-2.51085 0.849906,-10.78255 c 1.396559,-17.71781 4.562647,-29.71612 11.488833,-43.5385 16.091399,-32.1131 46.108599,-54.60366 80.790619,-60.53285 10.42554,-1.78234 27.52662,-1.81825 37.67636,-0.0791 l 7.17135,1.22878 4.56624,-5.41098 c 13.59816,-16.113788 31.55001,-28.926529 51.81616,-36.982659 7.87138,-3.129006 22.38633,-6.652394 31.48257,-7.642147 9.57656,-1.042014 28.02672,-0.530797 36.34239,1.006975 50.44542,9.328595 89.84446,46.219271 102.02164,95.526371 2.97365,12.04074 3.69303,19.19412 3.44681,34.27454 l -0.21356,13.08044 7.24347,4.91371 c 29.0101,19.67939 48.01648,47.81781 54.80798,81.14169 10.18488,49.97422 -11.31971,102.03551 -54.04738,130.84544 -18.3,12.3391 -39.37144,19.55747 -62.16644,21.29614 -11.17452,0.8523 -280.29783,0.8298 -290.57572,-0.0243 z m 291.27422,-31.77925 c 20.86108,-1.30014 44.93033,-13.17582 60.42733,-29.81461 12.54192,-13.466 21.33395,-30.86772 24.44063,-48.37441 1.67727,-9.45168 1.52751,-26.75877 -0.30955,-35.77338 -6.75823,-33.16319 -29.57455,-59.53252 -61.85719,-71.48972 -3.45757,-1.28065 -6.41272,-2.418 -6.56701,-2.52745 -0.15428,-0.10944 0.5438,-2.7969 1.5513,-5.97212 3.63051,-11.44191 4.20983,-15.42131 4.24697,-29.17288 0.0266,-9.84945 -0.26249,-14.33406 -1.21575,-18.85948 -8.09188,-38.41486 -36.97655,-67.35437 -75.7306,-75.874385 -7.62537,-1.676426 -29.74044,-1.674082 -37.37482,0.004 -25.83304,5.678135 -46.92334,19.916405 -61.16741,41.294715 -2.5597,3.84174 -5.55765,8.91073 -6.66211,11.26442 l -2.00811,4.27943 -5.67538,-2.64606 c -12.82967,-5.98164 -22.75535,-7.99452 -36.7586,-7.45447 -13.71836,0.52905 -21.7401,2.56613 -33.67948,8.5527 -22.43084,11.24714 -39.20477,34.70013 -42.51311,59.44102 -1.67672,12.53911 0.11759,29.59227 4.20466,39.96127 0.79172,2.00861 1.43949,3.72507 1.43949,3.81436 0,0.0893 -2.33106,0.0446 -5.18013,-0.0993 -14.3578,-0.72503 -33.385641,4.9434 -46.508551,13.85499 -14.523662,9.86284 -26.845867,26.99132 -31.713853,44.08385 -12.285063,43.13548 12.470491,87.0008 56.185519,99.55729 l 6.611289,1.899 31.432466,0.45546 c 35.15649,0.50941 255.11853,0.17307 264.382,-0.40427 z"
     id="path4638"
     inkscape:connector-curvature="0" /><path
     style="fill:#555c65;fill-opacity:0;stroke:#48505a;stroke-width:0.69849932;stroke-opacity:0"
     d="M 102.4,447.20068 C 75.996118,445.00646 52.840521,434.11687 33.547345,414.82076 16.848425,398.11929 7.3835751,380.80185 2.4051581,357.8412 1.0299064,351.49848 0.81691004,348.5239 0.82964326,335.83847 0.84627279,319.27151 1.8151124,313.02055 6.4210709,299.76255 12.112548,283.37993 20.587886,269.95639 33.248568,257.2722 45.329258,245.1691 57.419446,237.30979 73.063029,231.39055 l 6.635743,-2.51085 0.849906,-10.78255 c 1.396559,-17.71781 4.562647,-29.71612 11.488833,-43.5385 16.091399,-32.1131 46.108599,-54.60366 80.790619,-60.53285 10.42554,-1.78234 27.52662,-1.81825 37.67636,-0.0791 l 7.17135,1.22878 4.56624,-5.41098 c 13.59816,-16.113788 31.55001,-28.926529 51.81616,-36.982659 7.87138,-3.129006 22.38633,-6.652394 31.48257,-7.642147 9.57656,-1.042014 28.02672,-0.530797 36.34239,1.006975 50.44542,9.328595 89.84446,46.219271 102.02164,95.526371 2.97365,12.04074 3.69303,19.19412 3.44681,34.27454 l -0.21356,13.08044 7.24347,4.91371 c 29.0101,19.67939 48.01648,47.81781 54.80798,81.14169 10.18488,49.97422 -11.31971,102.03551 -54.04738,130.84544 -18.3,12.3391 -39.37144,19.55747 -62.16644,21.29614 -11.17452,0.8523 -280.29783,0.8298 -290.57572,-0.0243 z m 291.27422,-31.77925 c 20.86108,-1.30014 44.93033,-13.17582 60.42733,-29.81461 12.54192,-13.466 21.33395,-30.86772 24.44063,-48.37441 1.67727,-9.45168 1.52751,-26.75877 -0.30955,-35.77338 -6.75823,-33.16319 -29.57455,-59.53252 -61.85719,-71.48972 -3.45757,-1.28065 -6.41272,-2.418 -6.56701,-2.52745 -0.15428,-0.10944 0.5438,-2.7969 1.5513,-5.97212 3.63051,-11.44191 4.20983,-15.42131 4.24697,-29.17288 0.0266,-9.84945 -0.26249,-14.33406 -1.21575,-18.85948 -8.09188,-38.41486 -36.97655,-67.35437 -75.7306,-75.874385 -7.62537,-1.676426 -29.74044,-1.674082 -37.37482,0.004 -25.83304,5.678135 -46.92334,19.916405 -61.16741,41.294715 -2.5597,3.84174 -5.55765,8.91073 -6.66211,11.26442 l -2.00811,4.27943 -5.67538,-2.64606 c -12.82967,-5.98164 -22.75535,-7.99452 -36.7586,-7.45447 -13.71836,0.52905 -21.7401,2.56613 -33.67948,8.5527 -22.43084,11.24714 -39.20477,34.70013 -42.51311,59.44102 -1.67672,12.53911 0.11759,29.59227 4.20466,39.96127 0.79172,2.00861 1.43949,3.72507 1.43949,3.81436 0,0.0893 -2.33106,0.0446 -5.18013,-0.0993 -14.3578,-0.72503 -33.385641,4.9434 -46.508551,13.85499 -14.523662,9.86284 -26.845867,26.99132 -31.713853,44.08385 -12.285063,43.13548 12.470491,87.0008 56.185519,99.55729 l 6.611289,1.899 31.432466,0.45546 c 35.15649,0.50941 255.11853,0.17307 264.382,-0.40427 z"
     id="path4640"
     inkscape:connector-curvature="0" /><path
     style="fill:#555c65;fill-opacity:0;stroke:#48505a;stroke-width:0.69849932;stroke-opacity:0"
     d="M 102.4,447.20068 C 75.996118,445.00646 52.840521,434.11687 33.547345,414.82076 16.848425,398.11929 7.3835751,380.80185 2.4051581,357.8412 1.0299064,351.49848 0.81691004,348.5239 0.82964326,335.83847 0.84627279,319.27151 1.8151124,313.02055 6.4210709,299.76255 12.112548,283.37993 20.587886,269.95639 33.248568,257.2722 45.329258,245.1691 57.419446,237.30979 73.063029,231.39055 l 6.635743,-2.51085 0.849906,-10.78255 c 1.396559,-17.71781 4.562647,-29.71612 11.488833,-43.5385 16.091399,-32.1131 46.108599,-54.60366 80.790619,-60.53285 10.42554,-1.78234 27.52662,-1.81825 37.67636,-0.0791 l 7.17135,1.22878 4.56624,-5.41098 c 13.59816,-16.113788 31.55001,-28.926529 51.81616,-36.982659 7.87138,-3.129006 22.38633,-6.652394 31.48257,-7.642147 9.57656,-1.042014 28.02672,-0.530797 36.34239,1.006975 50.44542,9.328595 89.84446,46.219271 102.02164,95.526371 2.97365,12.04074 3.69303,19.19412 3.44681,34.27454 l -0.21356,13.08044 7.24347,4.91371 c 29.0101,19.67939 48.01648,47.81781 54.80798,81.14169 10.18488,49.97422 -11.31971,102.03551 -54.04738,130.84544 -18.3,12.3391 -39.37144,19.55747 -62.16644,21.29614 -11.17452,0.8523 -280.29783,0.8298 -290.57572,-0.0243 z m 291.27422,-31.77925 c 20.86108,-1.30014 44.93033,-13.17582 60.42733,-29.81461 12.54192,-13.466 21.33395,-30.86772 24.44063,-48.37441 1.67727,-9.45168 1.52751,-26.75877 -0.30955,-35.77338 -6.75823,-33.16319 -29.57455,-59.53252 -61.85719,-71.48972 -3.45757,-1.28065 -6.41272,-2.418 -6.56701,-2.52745 -0.15428,-0.10944 0.5438,-2.7969 1.5513,-5.97212 3.63051,-11.44191 4.20983,-15.42131 4.24697,-29.17288 0.0266,-9.84945 -0.26249,-14.33406 -1.21575,-18.85948 -8.09188,-38.41486 -36.97655,-67.35437 -75.7306,-75.874385 -7.62537,-1.676426 -29.74044,-1.674082 -37.37482,0.004 -25.83304,5.678135 -46.92334,19.916405 -61.16741,41.294715 -2.5597,3.84174 -5.55765,8.91073 -6.66211,11.26442 l -2.00811,4.27943 -5.67538,-2.64606 c -12.82967,-5.98164 -22.75535,-7.99452 -36.7586,-7.45447 -13.71836,0.52905 -21.7401,2.56613 -33.67948,8.5527 -22.43084,11.24714 -39.20477,34.70013 -42.51311,59.44102 -1.67672,12.53911 0.11759,29.59227 4.20466,39.96127 0.79172,2.00861 1.43949,3.72507 1.43949,3.81436 0,0.0893 -2.33106,0.0446 -5.18013,-0.0993 -14.3578,-0.72503 -33.385641,4.9434 -46.508551,13.85499 -14.523662,9.86284 -26.845867,26.99132 -31.713853,44.08385 -12.285063,43.13548 12.470491,87.0008 56.185519,99.55729 l 6.611289,1.899 31.432466,0.45546 c 35.15649,0.50941 255.11853,0.17307 264.382,-0.40427 z"
     id="path4662"
     inkscape:connector-curvature="0" /><path
     style="fill:#48505a;fill-opacity:1;stroke:#48505a;stroke-width:0.69849932;stroke-opacity:0"
     d="M 102.4,447.20068 C 75.996118,445.00646 52.840521,434.11687 33.547345,414.82076 16.848425,398.11929 7.3835751,380.80185 2.4051581,357.8412 1.0299064,351.49848 0.81691004,348.5239 0.82964326,335.83847 0.84627279,319.27151 1.8151124,313.02055 6.4210709,299.76255 12.112548,283.37993 20.587886,269.95639 33.248568,257.2722 45.329258,245.1691 57.419446,237.30979 73.063029,231.39055 l 6.635743,-2.51085 0.849906,-10.78255 c 1.396559,-17.71781 4.562647,-29.71612 11.488833,-43.5385 16.091399,-32.1131 46.108599,-54.60366 80.790619,-60.53285 10.42554,-1.78234 27.52662,-1.81825 37.67636,-0.0791 l 7.17135,1.22878 4.56624,-5.41098 c 13.59816,-16.113788 31.55001,-28.926529 51.81616,-36.982659 7.87138,-3.129006 22.38633,-6.652394 31.48257,-7.642147 9.57656,-1.042014 28.02672,-0.530797 36.34239,1.006975 50.44542,9.328595 89.84446,46.219271 102.02164,95.526371 2.97365,12.04074 3.69303,19.19412 3.44681,34.27454 l -0.21356,13.08044 7.24347,4.91371 c 29.0101,19.67939 48.01648,47.81781 54.80798,81.14169 10.18488,49.97422 -11.31971,102.03551 -54.04738,130.84544 -18.3,12.3391 -39.37144,19.55747 -62.16644,21.29614 -11.17452,0.8523 -280.29783,0.8298 -290.57572,-0.0243 z m 291.27422,-31.77925 c 20.86108,-1.30014 44.93033,-13.17582 60.42733,-29.81461 12.54192,-13.466 21.33395,-30.86772 24.44063,-48.37441 1.67727,-9.45168 1.52751,-26.75877 -0.30955,-35.77338 -6.75823,-33.16319 -29.57455,-59.53252 -61.85719,-71.48972 -3.45757,-1.28065 -6.41272,-2.418 -6.56701,-2.52745 -0.15428,-0.10944 0.5438,-2.7969 1.5513,-5.97212 3.63051,-11.44191 4.20983,-15.42131 4.24697,-29.17288 0.0266,-9.84945 -0.26249,-14.33406 -1.21575,-18.85948 -8.09188,-38.41486 -36.97655,-67.35437 -75.7306,-75.874385 -7.62537,-1.676426 -29.74044,-1.674082 -37.37482,0.004 -25.83304,5.678135 -46.92334,19.916405 -61.16741,41.294715 -2.5597,3.84174 -5.55765,8.91073 -6.66211,11.26442 l -2.00811,4.27943 -5.67538,-2.64606 c -12.82967,-5.98164 -22.75535,-7.99452 -36.7586,-7.45447 -13.71836,0.52905 -21.7401,2.56613 -33.67948,8.5527 -22.43084,11.24714 -39.20477,34.70013 -42.51311,59.44102 -1.67672,12.53911 0.11759,29.59227 4.20466,39.96127 0.79172,2.00861 1.43949,3.72507 1.43949,3.81436 0,0.0893 -2.33106,0.0446 -5.18013,-0.0993 -14.3578,-0.72503 -33.385641,4.9434 -46.508551,13.85499 -14.523662,9.86284 -26.845867,26.99132 -31.713853,44.08385 -12.285063,43.13548 12.470491,87.0008 56.185519,99.55729 l 6.611289,1.899 31.432466,0.45546 c 35.15649,0.50941 255.11853,0.17307 264.382,-0.40427 z"
     id="path4722"
     inkscape:connector-curvature="0" /></svg>