<?xml version="1.0" encoding="iso-8859-1"?>
<!-- Generator: Adobe Illustrator 17.1.0, SVG Export Plug-In . SVG Version: 6.00 Build 0)  -->
<!DOCTYPE svg PUBLIC "-//W3C//DTD SVG 1.1//EN" "http://www.w3.org/Graphics/SVG/1.1/DTD/svg11.dtd">
<svg xmlns="http://www.w3.org/2000/svg" xmlns:xlink="http://www.w3.org/1999/xlink" version="1.1" id="Capa_1" x="0px" y="0px" viewBox="0 0 334.936 334.936" style="enable-background:new 0 0 334.936 334.936;" xml:space="preserve" width="512px" height="512px">
<path d="M71.134,75.058c20.693,0,37.528-16.836,37.528-37.529S91.826,0,71.134,0C50.44,0,33.604,16.835,33.604,37.528  S50.44,75.058,71.134,75.058z M71.134,18c10.768,0,19.528,8.761,19.528,19.528c0,10.769-8.76,19.529-19.528,19.529  c-10.769,0-19.529-8.761-19.529-19.529C51.604,26.761,60.365,18,71.134,18z M263.803,75.058c20.691,0,37.525-16.836,37.525-37.529  S284.495,0,263.803,0c-20.694,0-37.53,16.835-37.53,37.528S243.109,75.058,263.803,75.058z M263.803,18  c10.767,0,19.525,8.761,19.525,19.528c0,10.769-8.759,19.529-19.525,19.529c-10.769,0-19.53-8.761-19.53-19.529  C244.273,26.761,253.035,18,263.803,18z M105.146,325.934c0,4.971-4.029,9-9,9H71.869c-0.013,0-0.026,0.002-0.039,0.002  c-4.971,0-9-4.029-9-9V149.304c0-4.971,4.029-9,9-9s9,4.029,9,9v167.63h15.316C101.117,316.934,105.146,320.963,105.146,325.934z   M272.105,325.895c0,0.013,0.002,0.025,0.002,0.039c0,2.486-1.008,4.736-2.637,6.365c-1.629,1.629-3.879,2.637-6.365,2.637  c-0.013,0-0.026-0.002-0.039-0.002h-24.278c-4.971,0-9-4.029-9-9s4.029-9,9-9h15.316v-167.63c0-4.971,4.029-9,9-9s9,4.029,9,9  V325.895z M308.414,214.661c0.135,4.969-3.783,9.106-8.752,9.242c-0.084,0.002-0.167,0.003-0.25,0.003  c-4.856,0-8.858-3.87-8.992-8.755l-1.922-70.611c-0.221-8.175-2.739-34.842-25.836-34.842c-15.708,0-29.356,12.586-41.727,38.477  l-26.686,55.857c-0.931,1.947-2.529,3.495-4.505,4.361l-19.566,8.585c-4.551,1.999-9.86-0.073-11.858-4.625  c-0.92-2.096-0.968-4.35-0.317-6.37l-5.632,2.431c-4.439,1.919-9.602-0.019-11.688-4.383l-26.685-55.857  c-12.368-25.891-26.017-38.477-41.726-38.477c-23.095,0-25.614,26.668-25.835,34.841l-1.923,70.612  c-0.133,4.885-4.135,8.755-8.992,8.755c-0.083,0-0.166-0.001-0.25-0.003c-4.969-0.136-8.887-4.273-8.751-9.242l1.923-70.611  c0.863-31.802,18.066-52.352,43.827-52.352c23.348,0,42.31,15.936,57.97,48.717l22.95,48.041l11.612-5.013  c4.564-1.969,9.86,0.134,11.83,4.695c0.882,2.043,0.943,4.231,0.337,6.204l2.479-1.088l25.243-52.84  c15.663-32.781,34.625-48.717,57.969-48.717c25.764,0,42.968,20.55,43.83,52.353L308.414,214.661z" fill="#48505a"/>
<g>
</g>
<g>
</g>
<g>
</g>
<g>
</g>
<g>
</g>
<g>
</g>
<g>
</g>
<g>
</g>
<g>
</g>
<g>
</g>
<g>
</g>
<g>
</g>
<g>
</g>
<g>
</g>
<g>
</g>
</svg>
