<svg xmlns="http://www.w3.org/2000/svg" viewBox="0 0 87.65 75.28"><defs><style>.cls-1{fill:#ee761e;}.cls-2{fill:#fff;}.cls-3{fill:#48505a;}</style></defs><title>Asset 12</title><g id="Layer_2" data-name="Layer 2"><g id="Layer_1-2" data-name="Layer 1"><rect class="cls-1" x="15.01" y="2.42" width="7.25" height="3" transform="translate(8.99 20.33) rotate(-71.44)"/><rect class="cls-1" x="5.69" y="3.04" width="3" height="7.25" transform="translate(-2.61 6.43) rotate(-41.43)"/><rect class="cls-1" x="0.23" y="16.45" width="7.25" height="3" transform="translate(-3.48 1.12) rotate(-11.42)"/><rect class="cls-1" x="8.33" y="24.99" width="7.26" height="3" transform="translate(-16.96 29.39) rotate(-71.44)"/><rect class="cls-1" x="21.9" y="20.11" width="3" height="7.25" transform="translate(-9.85 21.42) rotate(-41.43)"/><rect class="cls-1" x="23.11" y="10.95" width="7.26" height="3" transform="translate(-1.94 5.54) rotate(-11.42)"/><path class="cls-2" d="M47.34,39.42a.71.71,0,0,0,.4-1.28L34.07,27.72,20,17a.71.71,0,0,0-1.14.57l.05,17.73.05,17.2a.71.71,0,0,0,1.26.45L26,45.83a.71.71,0,0,1,1.19.14l6.92,13.92a.71.71,0,0,0,1,.32l9.06-4.51a.71.71,0,0,0,.32-1L37.56,40.83a.71.71,0,0,1,.61-1Z"/><path class="cls-3" d="M34.77,61.79a2.22,2.22,0,0,1-2-1.23L26.41,47.73l-5.07,6.15a2.21,2.21,0,0,1-3.92-1.4l-.1-34.93a2.21,2.21,0,0,1,3.55-1.77L48.66,37a2.21,2.21,0,0,1-1.25,4l-8,.33,6.38,12.83a2.21,2.21,0,0,1-1,3l-9.06,4.51A2.2,2.2,0,0,1,34.77,61.79Zm-8.2-17.71h.25a2.2,2.2,0,0,1,1.73,1.21l6.57,13.21,7.65-3.8L36.21,41.49A2.21,2.21,0,0,1,38.1,38.3l7-.29L20.32,19.13l.09,31.15,4.46-5.4A2.2,2.2,0,0,1,26.58,44.07Zm20.71-6.15h0Z"/><path class="cls-2" d="M85.46,52.91a.71.71,0,0,0,.4-1.28L72.18,41.21,58.08,30.46a.71.71,0,0,0-1.14.57L57,48.76,57,66a.71.71,0,0,0,1.26.45l5.85-7.09a.71.71,0,0,1,1.19.14l6.92,13.92a.71.71,0,0,0,1,.32l9.06-4.51a.71.71,0,0,0,.32-1L75.67,54.32a.71.71,0,0,1,.61-1Z"/><path class="cls-3" d="M72.89,75.28a2.22,2.22,0,0,1-2-1.23L64.53,61.22l-5.07,6.15A2.21,2.21,0,0,1,55.54,66L55.43,31A2.21,2.21,0,0,1,59,29.27L86.77,50.44a2.21,2.21,0,0,1-1.25,4l-8,.33,6.38,12.83a2.22,2.22,0,0,1-1,3L73.87,75A2.2,2.2,0,0,1,72.89,75.28Zm-.35-2.92h0ZM64.69,57.57h.25a2.21,2.21,0,0,1,1.73,1.21L73.24,72l7.65-3.8L74.33,55a2.21,2.21,0,0,1,1.89-3.19l7-.29L58.44,32.63l.09,31.15L63,58.37A2.2,2.2,0,0,1,64.69,57.57ZM85.4,51.42h0Z"/></g></g></svg>