<?xml version="1.0" encoding="iso-8859-1"?>
<!-- Generator: Adobe Illustrator 18.0.0, SVG Export Plug-In . SVG Version: 6.00 Build 0)  -->
<!DOCTYPE svg PUBLIC "-//W3C//DTD SVG 1.1//EN" "http://www.w3.org/Graphics/SVG/1.1/DTD/svg11.dtd">
<svg xmlns="http://www.w3.org/2000/svg" xmlns:xlink="http://www.w3.org/1999/xlink" version="1.1" id="Capa_1" x="0px" y="0px" viewBox="0 0 496.211 496.211" style="enable-background:new 0 0 496.211 496.211;" xml:space="preserve" width="512px" height="512px">
<g>
	<path d="M456.314,20.615H180.495c-16.299,0-29.561,13.258-29.561,29.558V90.78c0,16.299,13.263,29.558,29.561,29.558h275.819   c16.299,0,29.558-13.259,29.558-29.558V50.173C485.872,33.873,472.613,20.615,456.314,20.615z M461.062,90.78   c0,2.614-2.134,4.747-4.748,4.747h-85.059V45.426h85.059c2.614,0,4.748,2.133,4.748,4.747V90.78z" fill="#48505a"/>
	<path d="M98.262,100.957c-0.307-0.21-0.532-0.502-0.823-0.742c-9.208,8.541-20.66,13.68-33.115,13.68   c-12.471,0-23.923-5.139-33.111-13.664c-0.291,0.225-0.531,0.517-0.808,0.727c-10.207,8.023-17.544,19.592-19.968,33.145   c-0.321,1.696,0.166,3.439,1.265,4.763c1.094,1.325,2.745,2.082,4.457,2.082h96.335c1.712,0,3.357-0.757,4.456-2.082   c1.099-1.324,1.581-3.066,1.26-4.763C115.77,120.549,108.438,108.98,98.262,100.957z" fill="#48505a"/>
	<path d="M64.323,95.627c20.063,0,36.312-21.422,36.312-47.813C100.635,21.402,84.386,0,64.323,0   C44.264,0,28.011,21.402,28.011,47.813C28.011,74.205,44.264,95.627,64.323,95.627z" fill="#48505a"/>
	<path d="M456.314,198.241H180.495c-16.299,0-29.561,13.264-29.561,29.563v40.608c0,16.293,13.263,29.559,29.561,29.559h275.819   c16.299,0,29.558-13.266,29.558-29.559v-40.608C485.872,211.505,472.613,198.241,456.314,198.241z M461.062,268.412   c0,2.614-2.134,4.747-4.748,4.747H284.418v-50.107h171.896c2.614,0,4.748,2.133,4.748,4.752V268.412z" fill="#48505a"/>
	<path d="M98.262,278.584c-0.307-0.205-0.532-0.496-0.823-0.742c-9.208,8.545-20.66,13.684-33.115,13.684   c-12.471,0-23.923-5.139-33.111-13.664c-0.291,0.227-0.531,0.518-0.808,0.723c-10.207,8.029-17.544,19.596-19.968,33.147   c-0.321,1.695,0.166,3.441,1.265,4.768c1.094,1.324,2.745,2.082,4.457,2.082h96.335c1.712,0,3.357-0.758,4.456-2.082   c1.099-1.326,1.581-3.072,1.26-4.768C115.77,298.18,108.438,286.613,98.262,278.584z" fill="#48505a"/>
	<path d="M64.323,273.256c20.063,0,36.312-21.42,36.312-47.811c0-26.411-16.249-47.813-36.312-47.813   c-20.059,0-36.313,21.402-36.313,47.813C28.011,251.836,44.264,273.256,64.323,273.256z" fill="#48505a"/>
	<path d="M98.262,456.215c-0.307-0.209-0.532-0.502-0.823-0.742c-9.208,8.545-20.66,13.68-33.115,13.68   c-12.471,0-23.923-5.135-33.111-13.664c-0.291,0.225-0.531,0.518-0.808,0.727c-10.207,8.029-17.544,19.592-19.968,33.146   c-0.321,1.695,0.166,3.438,1.265,4.762c1.094,1.326,2.745,2.088,4.457,2.088h96.335c1.712,0,3.357-0.762,4.456-2.088   c1.099-1.324,1.581-3.066,1.26-4.762C115.77,475.807,108.438,464.244,98.262,456.215z" fill="#48505a"/>
	<path d="M64.323,450.887c20.063,0,36.312-21.418,36.312-47.814c0-26.406-16.249-47.809-36.312-47.809   c-20.059,0-36.313,21.402-36.313,47.809C28.011,429.469,44.264,450.887,64.323,450.887z" fill="#48505a"/>
	<path d="M456.314,375.873H180.495c-16.299,0-29.561,13.264-29.561,29.559v40.607c0,16.299,13.263,29.563,29.561,29.563h275.819   c16.299,0,29.558-13.264,29.558-29.563v-40.607C485.872,389.137,472.613,375.873,456.314,375.873z M461.062,446.039   c0,2.619-2.134,4.752-4.748,4.752h-45.776v-50.107h45.776c2.614,0,4.748,2.133,4.748,4.748V446.039z" fill="#48505a"/>
</g>
<g>
</g>
<g>
</g>
<g>
</g>
<g>
</g>
<g>
</g>
<g>
</g>
<g>
</g>
<g>
</g>
<g>
</g>
<g>
</g>
<g>
</g>
<g>
</g>
<g>
</g>
<g>
</g>
<g>
</g>
</svg>
