<?xml version="1.0" encoding="UTF-8" standalone="no"?>
<!-- Created with Inkscape (http://www.inkscape.org/) -->

<svg
   xmlns:dc="http://purl.org/dc/elements/1.1/"
   xmlns:cc="http://creativecommons.org/ns#"
   xmlns:rdf="http://www.w3.org/1999/02/22-rdf-syntax-ns#"
   xmlns:svg="http://www.w3.org/2000/svg"
   xmlns="http://www.w3.org/2000/svg"
   xmlns:sodipodi="http://sodipodi.sourceforge.net/DTD/sodipodi-0.dtd"
   xmlns:inkscape="http://www.inkscape.org/namespaces/inkscape"
   version="1.1"
   id="svg5089"
   width="266.66666"
   height="152"
   viewBox="0 0 266.66666 152"
   sodipodi:docname="unblu_logo_extracted_27042017.svg"
   inkscape:version="0.92.1 r15371">
  <metadata
     id="metadata5095">
    <rdf:RDF>
      <cc:Work
         rdf:about="">
        <dc:format>image/svg+xml</dc:format>
        <dc:type
           rdf:resource="http://purl.org/dc/dcmitype/StillImage" />
        <dc:title></dc:title>
      </cc:Work>
    </rdf:RDF>
  </metadata>
  <defs
     id="defs5093" />
  <sodipodi:namedview
     pagecolor="#ffffff"
     bordercolor="#666666"
     borderopacity="1"
     objecttolerance="10"
     gridtolerance="10"
     guidetolerance="10"
     inkscape:pageopacity="0"
     inkscape:pageshadow="2"
     inkscape:window-width="1738"
     inkscape:window-height="997"
     id="namedview5091"
     showgrid="false"
     inkscape:zoom="5.4276316"
     inkscape:cx="102.56484"
     inkscape:cy="76"
     inkscape:window-x="2379"
     inkscape:window-y="326"
     inkscape:window-maximized="0"
     inkscape:current-layer="g5099" />
  <g
     id="g5099"
     transform="matrix(0.79203658,0,0,0.82980591,55.45697,25.871814)">
    <path
       style="fill:#ffffff;stroke-width:1.33333337"
       d="M 0,76 V 0 h 133.33333 133.33333 v 76 76 H 133.33333 0 Z"
       id="path5115"
       inkscape:connector-curvature="0" />
    <path
       style="fill:#f69651;stroke-width:1.33333337"
       d="M 19.991368,150.75421 C 12.891011,148.59439 7.8466325,145.04459 4.3276458,139.73144 0.73138534,134.30161 0.65886518,133.78372 0.22535633,110.43528 -0.20336438,87.344732 -0.13925138,86.666667 2.4727455,86.666667 c 2.5771713,0 2.7060914,0.96402 3.107977,23.240373 0.4813259,26.67969 1.0797341,28.34688 12.1709595,33.90867 7.764884,3.89376 16.130605,3.1274 22.272034,-2.04027 6.789932,-5.71336 7.265403,-7.60657 7.976283,-31.75983 0.594617,-20.203058 0.91884,-22.699329 3,-23.097762 1.877752,-0.359492 2.333333,0.503825 2.333333,4.421617 v 4.86833 l 5.481336,-4.691819 c 11.834802,-10.130151 28.155912,-9.114789 38.248003,2.379468 5.846699,6.659026 6.921459,12.081306 6.929889,34.961906 0.006,16.09669 -0.37166,20.33616 -1.86221,20.90813 -1.0283,0.3946 -2.228303,0.35879 -2.666664,-0.0796 -0.438362,-0.43836 -0.810199,-10.14701 -0.826304,-21.5748 -0.03371,-23.91797 -1.622792,-29.618445 -9.637323,-34.571697 -6.505769,-4.020787 -17.660694,-3.958826 -23.730795,0.131814 -8.607149,5.800358 -9.881873,9.868093 -10.339943,32.995473 -0.225132,11.36666 -0.683429,21.48424 -1.018437,22.48349 -0.991632,2.95783 -4.577552,-0.87772 -4.577552,-4.89621 v -3.41952 l -3.818957,3.65878 c -3.82716,3.66666 -14.16466,7.6071 -19.39295,7.39219 -1.533451,-0.0631 -4.291976,-0.57207 -6.130057,-1.13119 z M 132.65696,148.86492 C 124.75357,145.18449 118.50231,138.49933 115.45922,130.47351 112.34361,122.2564 112.82308,58 116,58 c 1.6628,0 2.1124,3.475829 2.66666,20.615803 0.65251,20.177894 0.71602,20.540316 2.99012,17.061998 1.27789,-1.954592 5.17789,-5.231704 8.66666,-7.282469 8.6796,-5.102033 20.90142,-5.260892 29.61429,-0.384924 20.4672,11.45402 23.39911,40.936602 5.58713,56.182992 -9.68957,8.29391 -21.48809,9.97083 -32.8679,4.67152 z m 25.44318,-6.85312 c 14.56128,-8.53348 17.5672,-28.7986 6.23538,-42.037293 -10.60132,-12.385251 -26.914,-12.686563 -37.44567,-0.69166 -5.57471,6.349243 -7.07963,10.324893 -7.16794,18.936033 -0.21453,20.91931 20.9219,34.02301 38.37823,23.79292 z m 37.87906,7.50407 c -2.55523,-1.36627 -5.84587,-4.51627 -7.31254,-7 -2.47714,-4.19494 -2.69548,-7.32283 -3.07208,-44.012223 -0.34806,-33.90845 -0.126,-39.603556 1.56918,-40.254079 1.08604,-0.416749 2.59194,-0.01387 3.34648,0.895279 0.85005,1.024249 1.52108,16.410086 1.76414,40.449616 0.44103,43.617527 0.30318,43.022147 10.60401,45.795887 3.73043,1.0045 5.1216,2.08949 5.1216,3.99437 0,3.45153 -5.69477,3.51367 -12.02079,0.1312 z m 33.54767,1.05753 c -5.95646,-2.38571 -10.92962,-6.81501 -13.86906,-12.35235 -2.71559,-5.11567 -2.95016,-7.39738 -2.96982,-28.88772 C 212.66746,86.881777 212.76746,86 215.33333,86 c 2.53968,0 2.69841,1.111111 3.33333,23.33333 0.40085,14.02967 1.2824,24.39662 2.21091,26 9.2988,16.05764 34.11672,13.44463 38.98929,-4.10507 0.79837,-2.87554 1.45495,-14.37826 1.45903,-25.56159 0.007,-19.441969 0.12434,-20.333337 2.6741,-20.333337 2.56471,0 2.66667,0.88889 2.66667,23.246537 0,13.1467 -0.61481,24.87729 -1.41511,27 -1.91932,5.09081 -8.97994,12.3355 -14.20873,14.57912 -4.84629,2.07949 -16.78461,2.30944 -21.51595,0.41441 z M 19.143864,52.333333 C 14.242078,40.397544 12.084767,36 11.131191,36 10.570874,36 7.8371359,38.221768 5.0562167,40.937264 L 0,45.874528 V 22.624773 -0.62498197 L 16.036122,15.354176 32.072243,31.333333 25.036122,32 c -8.169264,0.774031 -8.13285,0.569576 -2.485017,13.953116 2.155377,5.107548 3.627714,9.757548 3.271858,10.333333 -1.573593,2.546128 -4.792368,0.641052 -6.679099,-3.953116 z"
       id="path5113"
       inkscape:connector-curvature="0" />
    <path
       style="fill:#9695a0;stroke-width:1.33333337"
       d="M 132.65696,148.86492 C 124.75357,145.18449 118.50231,138.49933 115.45922,130.47351 112.34361,122.2564 112.82308,58 116,58 c 1.6628,0 2.1124,3.475829 2.66666,20.615803 0.65251,20.177894 0.71602,20.540316 2.99012,17.061998 1.27789,-1.954592 5.17789,-5.231704 8.66666,-7.282469 8.6796,-5.102033 20.90142,-5.260892 29.61429,-0.384924 20.4672,11.45402 23.39911,40.936602 5.58713,56.182992 -9.68957,8.29391 -21.48809,9.97083 -32.8679,4.67152 z m 25.44318,-6.85312 c 14.56128,-8.53348 17.5672,-28.7986 6.23538,-42.037293 -10.60132,-12.385251 -26.914,-12.686563 -37.44567,-0.69166 -5.57471,6.349243 -7.07963,10.324893 -7.16794,18.936033 -0.21453,20.91931 20.9219,34.02301 38.37823,23.79292 z m 37.87906,7.50407 c -2.55523,-1.36627 -5.84587,-4.51627 -7.31254,-7 -2.47714,-4.19494 -2.69548,-7.32283 -3.07208,-44.012223 -0.34806,-33.90845 -0.126,-39.603556 1.56918,-40.254079 1.08604,-0.416749 2.59194,-0.01387 3.34648,0.895279 0.85005,1.024249 1.52108,16.410086 1.76414,40.449616 0.44103,43.617527 0.30318,43.022147 10.60401,45.795887 3.73043,1.0045 5.1216,2.08949 5.1216,3.99437 0,3.45153 -5.69477,3.51367 -12.02079,0.1312 z m 33.54767,1.05753 c -5.95646,-2.38571 -10.92962,-6.81501 -13.86906,-12.35235 -2.71559,-5.11567 -2.95016,-7.39738 -2.96982,-28.88772 C 212.66746,86.881777 212.76746,86 215.33333,86 c 2.53968,0 2.69841,1.111111 3.33333,23.33333 0.40085,14.02967 1.2824,24.39662 2.21091,26 9.2988,16.05764 34.11672,13.44463 38.98929,-4.10507 0.79837,-2.87554 1.45495,-14.37826 1.45903,-25.56159 0.007,-19.441969 0.12434,-20.333337 2.6741,-20.333337 2.56471,0 2.66667,0.88889 2.66667,23.246537 0,13.1467 -0.61481,24.87729 -1.41511,27 -1.91932,5.09081 -8.97994,12.3355 -14.20873,14.57912 -4.84629,2.07949 -16.78461,2.30944 -21.51595,0.41441 z M 15.308542,148.80857 C 10.341295,146.64421 3.054109,138.53121 1.6859321,133.64221 1.1253361,131.639 0.66666665,120.4 0.66666665,108.66667 c 0,-18.074078 0.30555555,-21.333337 1.99999995,-21.333337 1.6743056,0 2.1085647,3.730551 2.6666666,22.908287 0.7240196,24.87907 1.2223902,26.57026 9.6937558,32.89505 5.485614,4.0956 16.379597,4.37396 22.898609,0.58508 9.475162,-5.507 10.67815,-9.24088 11.186686,-34.72175 0.362471,-18.162101 0.798271,-22.333333 2.333333,-22.333333 1.321432,0 1.887615,1.642008 1.887615,5.47434 v 5.474341 l 3.888196,-4.162329 c 7.328178,-7.84484 20.096079,-10.390451 30.439163,-6.068835 6.4022,2.675011 9.344127,5.437157 12.726879,11.949149 2.46426,4.743837 2.78017,7.761937 2.85812,27.305417 0.0781,19.58044 -0.15688,22.02022 -2.1588,22.41437 -2.025023,0.39868 -2.287858,-1.85635 -2.666666,-22.87912 -0.379334,-21.05205 -0.687309,-23.68725 -3.16495,-27.081036 -3.401678,-4.659505 -13.115595,-9.759631 -18.588609,-9.759631 -7.209376,0 -15.651785,5.30947 -19,11.949187 -2.733224,5.42015 -3,7.82114 -3,27 0,17.82295 -0.306673,21.05081 -2,21.05081 -1.396825,0 -2,-1.40741 -2,-4.66666 0,-5.19227 -1.232977,-5.93523 -3.588997,-2.16264 -4.283529,6.85901 -22.293917,10.43316 -31.769126,6.30454 z M 17.169986,46.666667 C 14.771317,40.8 12.202093,36 11.460601,36 10.719109,36 7.8371359,38.221768 5.0562167,40.937264 L 0,45.874528 V 22.624773 -0.62498197 L 16.031664,15.354176 32.063327,31.333333 24.69833,31.733205 c -4.050748,0.21993 -7.364997,0.887407 -7.364997,1.483283 0,0.595876 1.8,5.448457 4,10.783512 4.47554,10.853296 4.865948,13.333333 2.098936,13.333333 -1.124008,0 -3.683707,-4.359985 -6.262283,-10.666666 z"
       id="path5111"
       inkscape:connector-curvature="0" />
    <path
       style="fill:#f3781f;stroke-width:1.33333337"
       d="m 135.56018,149.90072 c -4.07955,-1.29455 -8.5675,-4.17119 -12.24504,-7.84873 -9.03358,-9.03358 -9.98181,-13.93798 -9.98181,-51.627325 0,-30.869109 0.0746,-31.757998 2.66667,-31.757998 2.54973,0 2.66666,0.888889 2.66666,20.270597 v 20.270597 l 5,-4.790352 c 9.17435,-8.789668 18.25435,-11.49777 29.10966,-8.681938 8.84076,2.293262 15.29593,7.392761 19.7747,15.621739 14.58252,26.7929 -8.80677,57.48688 -36.99084,48.54341 z m 16.10784,-4.79075 c 8.2628,-2.0806 16.53407,-10.30738 18.91579,-18.81405 6.64319,-23.72715 -17.61207,-44.265979 -38.0979,-32.260483 -20.27272,11.880603 -16.30329,44.675483 6.18075,51.064633 6.26418,1.78005 5.97234,1.77982 13.00136,0.009 z m 45.76008,4.58158 c -5.69553,-2.9378 -9.24638,-7.68448 -10.81814,-14.4614 -0.66715,-2.87659 -1.22732,-20.99898 -1.24482,-40.271997 -0.0281,-30.918889 0.21934,-35.138221 2.10275,-35.860956 1.17401,-0.45051 2.66483,0.01832 3.31292,1.041847 0.64809,1.023525 1.18755,18.540752 1.19877,38.927169 0.0237,43.011787 0.22255,43.928257 10.10555,46.571547 4.17006,1.11532 5.88081,2.22836 5.61024,3.65011 -0.56158,2.95073 -4.99156,3.12492 -10.26727,0.40368 z m 31.23856,-0.21936 c -6.20765,-2.87406 -11.89899,-8.55604 -13.91517,-13.89232 -0.80507,-2.13079 -1.41816,-13.84557 -1.41816,-27.09777 0,-21.513876 0.18296,-23.309287 2.33333,-22.897785 2.08905,0.399766 2.40313,2.957473 3,24.431095 0.76128,27.38872 1.35953,29.15636 11.53503,34.08223 10.24406,4.95907 20.60306,2.24088 27.71592,-7.27263 2.46362,-3.2951 2.81826,-6.12453 3.41572,-27.25094 C 261.89241,89.804527 262.32277,86 263.99999,86 c 1.67756,0 2.06531,3.439292 2.40508,21.33333 0.23971,12.62421 -0.18304,23.35001 -1.03552,26.27324 -4.32098,14.817 -22.2387,22.56231 -36.70289,15.86562 z M 15.308542,148.80857 C 10.341295,146.64421 3.054109,138.53121 1.6859321,133.64221 1.1253361,131.639 0.66666665,120.4 0.66666665,108.66667 c 0,-18.074078 0.30555555,-21.333337 1.99999995,-21.333337 1.6743056,0 2.1085647,3.730551 2.6666666,22.908287 0.7240196,24.87907 1.2223902,26.57026 9.6937558,32.89505 5.485614,4.0956 16.379597,4.37396 22.898609,0.58508 9.475162,-5.507 10.67815,-9.24088 11.186686,-34.72175 0.362471,-18.162101 0.798271,-22.333333 2.333333,-22.333333 1.321432,0 1.887615,1.642008 1.887615,5.47434 v 5.474341 l 3.888196,-4.162329 c 7.328178,-7.84484 20.096079,-10.390451 30.439163,-6.068835 6.4022,2.675011 9.344127,5.437157 12.726879,11.949149 2.46426,4.743837 2.78017,7.761937 2.85812,27.305417 0.0781,19.58044 -0.15688,22.02022 -2.1588,22.41437 -2.025023,0.39868 -2.287858,-1.85635 -2.666666,-22.87912 -0.379334,-21.05205 -0.687309,-23.68725 -3.16495,-27.081036 -3.401678,-4.659505 -13.115595,-9.759631 -18.588609,-9.759631 -7.209376,0 -15.651785,5.30947 -19,11.949187 -2.733224,5.42015 -3,7.82114 -3,27 0,17.82295 -0.306673,21.05081 -2,21.05081 -1.396825,0 -2,-1.40741 -2,-4.66666 0,-5.19227 -1.232977,-5.93523 -3.588997,-2.16264 -4.283529,6.85901 -22.293917,10.43316 -31.769126,6.30454 z M 17.169986,46.666667 C 14.771317,40.8 12.202093,36 11.460601,36 10.719109,36 7.8371359,38.221768 5.0562167,40.937264 L 0,45.874528 V 22.624773 -0.62498197 L 16.031664,15.354176 32.063327,31.333333 24.69833,31.733205 c -4.050748,0.21993 -7.364997,0.887407 -7.364997,1.483283 0,0.595876 1.8,5.448457 4,10.783512 4.47554,10.853296 4.865948,13.333333 2.098936,13.333333 -1.124008,0 -3.683707,-4.359985 -6.262283,-10.666666 z"
       id="path5109"
       inkscape:connector-curvature="0" />
    <path
       style="fill:#787987;stroke-width:1.33333337"
       d="m 135.56018,149.90072 c -4.07955,-1.29455 -8.5675,-4.17119 -12.24504,-7.84873 -9.03358,-9.03358 -9.98181,-13.93798 -9.98181,-51.627325 0,-30.869109 0.0746,-31.757998 2.66667,-31.757998 2.54973,0 2.66666,0.888889 2.66666,20.270597 v 20.270597 l 5,-4.790352 c 9.17435,-8.789668 18.25435,-11.49777 29.10966,-8.681938 8.84076,2.293262 15.29593,7.392761 19.7747,15.621739 14.58252,26.7929 -8.80677,57.48688 -36.99084,48.54341 z m 16.10784,-4.79075 c 8.2628,-2.0806 16.53407,-10.30738 18.91579,-18.81405 6.64319,-23.72715 -17.61207,-44.265979 -38.0979,-32.260483 -20.27272,11.880603 -16.30329,44.675483 6.18075,51.064633 6.26418,1.78005 5.97234,1.77982 13.00136,0.009 z m 45.76008,4.58158 c -5.69553,-2.9378 -9.24638,-7.68448 -10.81814,-14.4614 -0.66715,-2.87659 -1.22732,-20.99898 -1.24482,-40.271997 -0.0281,-30.918889 0.21934,-35.138221 2.10275,-35.860956 1.17401,-0.45051 2.66483,0.01832 3.31292,1.041847 0.64809,1.023525 1.18755,18.540752 1.19877,38.927169 0.0237,43.011787 0.22255,43.928257 10.10555,46.571547 4.17006,1.11532 5.88081,2.22836 5.61024,3.65011 -0.56158,2.95073 -4.99156,3.12492 -10.26727,0.40368 z m 31.23856,-0.21936 c -6.20765,-2.87406 -11.89899,-8.55604 -13.91517,-13.89232 -0.80507,-2.13079 -1.41816,-13.84557 -1.41816,-27.09777 0,-21.513876 0.18296,-23.309287 2.33333,-22.897785 2.08905,0.399766 2.40313,2.957473 3,24.431095 0.76128,27.38872 1.35953,29.15636 11.53503,34.08223 10.24406,4.95907 20.60306,2.24088 27.71592,-7.27263 2.46362,-3.2951 2.81826,-6.12453 3.41572,-27.25094 C 261.89241,89.804527 262.32277,86 263.99999,86 c 1.67756,0 2.06531,3.439292 2.40508,21.33333 0.23971,12.62421 -0.18304,23.35001 -1.03552,26.27324 -4.32098,14.817 -22.2387,22.56231 -36.70289,15.86562 z"
       id="path5107"
       inkscape:connector-curvature="0" />
    <path
       style="fill:#545869;stroke-width:1.33333337"
       d="m 138.24334,150.53487 c -7.99837,-1.88136 -15.90011,-8.13888 -20.29365,-16.07087 L 114,127.33333 V 93.354463 c 0,-31.299663 0.18398,-34.014528 2.33333,-34.431099 2.14188,-0.415121 2.33333,1.255375 2.33333,20.358599 v 20.810827 l 4.3219,-4.922369 c 5.69264,-6.483558 13.22192,-9.778522 22.34477,-9.778522 9.29675,0 16.58055,3.2836 22.94673,10.344577 16.48096,18.279674 7.90808,48.455004 -15.49053,54.524524 -7.48443,1.94144 -7.4588,1.94096 -14.54619,0.27387 z m 14.12643,-5.28171 c 6.55428,-1.82013 14.08985,-8.51973 17.14359,-15.24172 9.40252,-20.69718 -9.11578,-44.509724 -30.43848,-39.140605 -11.21413,2.823749 -20.42426,15.141315 -20.40078,27.283855 0.0218,11.29056 7.9364,22.95103 17.99256,26.50831 6.4961,2.29793 9.18902,2.39915 15.70311,0.59016 z m 47.90894,5.42692 c -5.48083,-1.2894 -9.44697,-4.75381 -11.79607,-10.30392 -2.73738,-6.46744 -2.65108,-81.709493 0.0937,-81.709493 1.60418,0 1.97746,6.239192 2.33334,39 0.31036,28.571073 0.8799,39.798533 2.12984,41.986203 1.97526,3.45712 8.22542,7.0138 12.32535,7.0138 1.92576,0 2.69284,0.71058 2.39955,2.22284 -0.53651,2.76641 -1.92544,3.09865 -7.48571,1.79057 z m 29.9282,-0.62495 c -6.6021,-2.35397 -11.27053,-6.70852 -14.35353,-13.38846 -2.08743,-4.52284 -2.46593,-8.8286 -2.49077,-28.33334 -0.0239,-18.784459 0.31114,-22.999997 1.82806,-22.999997 3.04584,0 3.47599,3.192683 3.47599,25.799537 0,20.6791 0.13596,21.78153 3.25192,26.36706 8.45311,12.43988 26.44428,12.10292 35.99903,-0.67422 2.46366,-3.29455 2.81826,-6.12353 3.41572,-27.25095 C 261.89241,89.804603 262.32277,86 263.99999,86 c 1.67495,0 2.06351,3.358853 2.39076,20.66667 0.46016,24.33783 -0.78508,30.39432 -7.66342,37.27266 -7.50831,7.50831 -18.19046,9.79895 -28.52042,6.1158 z"
       id="path5105"
       inkscape:connector-curvature="0" />
    <path
       style="fill:#384254;stroke-width:1.33333337"
       d="m 231.99999,150.4838 c -7.02352,-2.07168 -13.35153,-7.51929 -16.191,-13.93837 -2.22612,-5.03252 -2.49545,-8.50424 -2.17488,-28.03484 0.2546,-15.511281 0.83895,-22.448319 1.92128,-22.808167 1.13387,-0.376984 1.67588,5.736137 2,22.556887 0.49679,25.78254 1.57828,29.471 10.38054,35.40282 8.70732,5.86787 23.61624,3.11566 29.75698,-5.49318 2.73914,-3.84004 3.02635,-6.06244 3.64042,-28.16895 0.55966,-20.148148 0.98765,-24 2.66666,-24 1.70159,0 2,3.481481 2,23.33333 0,22.84457 -0.0741,23.45932 -3.53592,29.34767 -5.82182,9.90247 -19.25817,15.10816 -30.46408,11.8028 z m -99.33333,-2.35027 c -6.59111,-3.05816 -13.19863,-9.86956 -15.93242,-16.42404 -2.75608,-6.60791 -3.12553,-73.616047 -0.40091,-72.712091 1.19529,0.396564 1.85522,6.274742 2.33333,20.783716 l 0.66667,20.230765 3.60465,-4.523644 c 4.93489,-6.193023 13.59316,-10.154903 22.19247,-10.154903 17.70471,0 31.20827,14.037415 31.19851,32.431917 -0.0107,19.06247 -13.01542,32.84286 -30.99563,32.84286 -4.33891,0 -9.51111,-1.01046 -12.66667,-2.47458 z m 24.80195,-5.17933 c 17.1088,-8.93773 19.6308,-33.51789 4.77713,-46.559568 -4.44376,-3.901675 -11.9916,-7.046427 -16.91241,-7.046427 -4.92081,0 -12.46866,3.144752 -16.91242,7.046427 -15.57815,13.677798 -11.90752,39.030858 6.91242,47.744218 7.52124,3.48222 13.85027,3.1435 22.13528,-1.18465 z m 37.758,5.19823 c -8.0992,-4.93888 -8.55995,-7.66715 -8.55995,-50.687269 0,-33.598661 0.26804,-38.798494 2,-38.798494 1.73022,0 2,5.041796 2,37.376158 0,38.736775 0.57308,43.457725 5.80168,47.793925 1.21812,1.01021 4.1162,2.22562 6.44019,2.70093 2.32398,0.47531 4.47028,1.59877 4.76956,2.49659 0.86112,2.58337 -7.77153,1.97198 -12.45148,-0.88184 z"
       id="path5103"
       inkscape:connector-curvature="0" />
    <path
       style="fill:#343f51;stroke-width:1.33333337"
       d="m 234.39885,150.70051 c -7.09198,-1.331 -14.91458,-6.98856 -17.85714,-12.91486 -2.20394,-4.4387 -2.54172,-8.17489 -2.54172,-28.11403 0,-30.995061 2.4428,-30.83046 3.33334,0.22461 0.73746,25.71701 1.26164,27.37866 10.6531,33.77044 5.84871,3.9806 17.44879,4.14732 23.69242,0.34053 8.6514,-5.27481 9.64392,-8.72165 9.64949,-33.51061 0.004,-17.243522 0.41481,-22.510201 1.84928,-23.700695 1.42748,-1.184711 2.03013,-1.046299 2.66667,0.612457 1.39649,3.639217 0.90668,36.067268 -0.65476,43.348008 -3.00768,14.02432 -16.33536,22.65711 -30.79068,19.94415 z M 134,148.81487 c -6.76804,-2.95664 -12.90133,-9.05818 -16.17751,-16.09372 -3.02362,-6.49317 -3.13022,-7.86686 -3.1428,-40.498927 -0.0102,-26.43281 0.34939,-33.657539 1.65364,-33.224824 1.19526,0.396553 1.85523,6.273809 2.33333,20.779028 l 0.66667,20.226073 5.10426,-5.264121 c 13.8489,-14.282652 36.12279,-11.508838 46.84486,5.833691 5.52039,8.92902 6.39567,22.55362 2.04367,31.8121 -3.25454,6.92372 -10.14031,13.64455 -16.85299,16.4493 -5.49483,2.29588 -17.19725,2.2862 -22.47313,-0.0187 z m 26.23788,-6.90044 c 17.2265,-12.13372 15.47221,-39.84052 -3.10883,-49.099841 -8.19077,-4.081636 -14.41797,-4.360525 -21.79572,-0.976136 -11.63912,5.339202 -17.40695,15.691557 -16.41133,29.455797 0.4452,6.15483 1.50512,9.36278 4.49691,13.6103 8.60781,12.2207 24.99233,15.34012 36.81897,7.00988 z m 35.38686,6.41768 c -2.03972,-1.28267 -4.88972,-4.77155 -6.33333,-7.75307 -2.42432,-5.00703 -2.62475,-8.34989 -2.62475,-43.777784 0,-30.091905 0.35912,-38.237488 1.66667,-37.80304 1.26304,0.41966 1.82812,10.126908 2.33333,40.083105 l 0.66667,39.529329 3.49743,3.49512 c 1.92357,1.92232 5.52357,3.90952 7.99999,4.416 2.47642,0.5065 4.3677,1.49628 4.20283,2.19956 -0.52928,2.25782 -7.58204,2.01722 -11.40884,-0.38922 z"
       id="path5101"
       inkscape:connector-curvature="0" />
  </g>
</svg>
