<?xml version="1.0" encoding="iso-8859-1"?>
<!-- Generator: Adobe Illustrator 16.0.0, SVG Export Plug-In . SVG Version: 6.00 Build 0)  -->
<!DOCTYPE svg PUBLIC "-//W3C//DTD SVG 1.1//EN" "http://www.w3.org/Graphics/SVG/1.1/DTD/svg11.dtd">
<svg xmlns="http://www.w3.org/2000/svg" xmlns:xlink="http://www.w3.org/1999/xlink" version="1.1" id="Capa_1" x="0px" y="0px" width="512px" height="512px" viewBox="0 0 31.781 31.781" style="enable-background:new 0 0 31.781 31.781;" xml:space="preserve">
<g>
	<g>
		<path d="M22.986,15.368l-0.168-5.261l-2.68-0.646l-1.227,1.471l-1.268-1.471l-2.936,0.646v5.261H12.84v1.1h18.941v-1.1H22.986z     M20.376,11.291h1.804v0.766h-1.804V11.291z" fill="#48505a"/>
		<path d="M31.297,8.437h-7.072v2.17h7.072V8.437z M25.32,10.31h-0.799V8.734h0.799V10.31z M25.991,10.118h-0.282v-1.09h0.282    V10.118z M26.531,10.118h-0.282v-1.09h0.282V10.118z M31,10.31h-3.919V8.734H31V10.31z" fill="#48505a"/>
		<rect x="29.921" y="9.023" width="0.304" height="1.099" fill="#48505a"/>
		<path d="M31.297,10.732h-1.049h-0.811h-5.213v2.17h7.072V10.732z M25.335,12.607h-0.813v-1.578h0.813V12.607z M26.243,12.367    h-0.304v-1.101h0.304V12.367z M26.746,12.368h-0.305v-1.099h0.305V12.368z M29.438,12.607H27.35v-1.578h2.088V12.607z M30,12.367    h-0.305v-1.101H30V12.367z M31,12.607h-0.751v-1.578H31V12.607z" fill="#48505a"/>
		<path d="M31.297,13.037h-7.072v2.17h7.072V13.037z M31,14.909h-6.479v-1.576H31V14.909z" fill="#48505a"/>
		<rect x="29.798" y="13.584" width="0.306" height="1.1" fill="#48505a"/>
		<rect x="29.297" y="13.583" width="0.305" height="1.101" fill="#48505a"/>
		<circle cx="18.854" cy="5.637" r="3.325" fill="#48505a"/>
		<path d="M14.064,12.814V8.621h-3.428V8.559h3.31V8.532h-3.31V8.466h3.31V8.437h-3.31V8.37h3.31V8.341h-3.31V8.264h3.31V8.236    h-3.31V8.168h3.298V8.141h-3.298v-0.07h3.404V7.845h-3.628V8.62h-0.003v1.502l-2.713,2.873H5.671l-1.226,1.471l-1.268-1.471    L0.242,13.64v5.833h1.047l0.064,1.241h0.21v0.759v0.558v5.92H1.334L0,28.24v1.229h1.136l1.326-0.218l0.012,0.218h1.47v-1.371    v-0.149V22.03H4.78v5.919v0.149v1.371h1.47l0.012-0.218l1.327,0.218h1.136V28.24L7.39,27.949H7.161V22.03v-0.558v-0.758h0.173    l0.274-5.503l2.8-2.8v0.403H14.064z M11.024,9.479h2.425v1.013h-2.425V9.479z" fill="#48505a"/>
		<path d="M1.034,7.954c-0.103,0.32-0.173,0.655-0.173,1.009c0,1.15,0.583,2.163,1.47,2.76c0.565,0.42,1.258,0.677,2.016,0.677    c1.874,0,3.394-1.519,3.394-3.395c0-0.375-0.076-0.729-0.187-1.066l0.689-0.951L7.008,6.554l0.241-1.262L5.742,5.723L5.048,4.27    L3.761,5.613L2.763,4.457l-0.47,1.527L0.692,5.459l0.603,1.349L0.13,7.135L1.034,7.954z" fill="#48505a"/>
	</g>
</g>
<g>
</g>
<g>
</g>
<g>
</g>
<g>
</g>
<g>
</g>
<g>
</g>
<g>
</g>
<g>
</g>
<g>
</g>
<g>
</g>
<g>
</g>
<g>
</g>
<g>
</g>
<g>
</g>
<g>
</g>
</svg>
