<?xml version="1.0" encoding="iso-8859-1"?>
<!-- Generator: Adobe Illustrator 19.0.0, SVG Export Plug-In . SVG Version: 6.00 Build 0)  -->
<svg xmlns="http://www.w3.org/2000/svg" xmlns:xlink="http://www.w3.org/1999/xlink" version="1.1" id="Layer_1" x="0px" y="0px" viewBox="0 0 392.533 392.533" style="enable-background:new 0 0 392.533 392.533;" xml:space="preserve" width="512px" height="512px">
<g>
	<g>
		<path d="M359.822,0H32.711C14.675,0,0,14.675,0,32.711v234.861c0,18.036,14.675,32.711,32.711,32.711h124.638l-25.665,34.586    c-23.596,10.02-40.275,25.6-45.123,43.96c-0.84,3.232,0.259,13.705,10.602,13.705h198.271c10.861,0,11.442-10.408,10.602-13.705    c-4.849-18.36-21.527-33.939-45.123-43.96l-25.665-34.586h124.574c18.036,0,32.711-14.675,32.711-32.711V32.711    C392.533,14.675,377.859,0,359.822,0z M276.558,370.747H115.976c13.834-14.481,42.861-26.376,80.291-26.376    S262.723,356.331,276.558,370.747z M166.141,324.978l18.295-24.824h23.661l18.295,24.824c-9.568-1.616-19.717-2.457-30.125-2.457    S175.709,323.362,166.141,324.978z M107.96,278.432c7.24-42.602,44.089-74.408,88.307-74.408    c44.283,0,81.067,31.935,88.307,74.408H107.96z M370.747,267.507c0,6.012-4.849,10.925-10.925,10.925h-53.139    c-7.499-54.691-54.109-96.259-110.416-96.259S93.349,223.677,85.851,278.432H32.711c-6.012,0-10.925-4.848-10.925-10.925V182.82    h21.786c6.012,0,10.925-4.849,10.925-10.925c0-6.077-4.848-10.925-10.925-10.925H21.786v-21.786h43.572    c6.012,0,10.925-4.848,10.925-10.925c0-6.012-4.849-10.925-10.925-10.925H21.786V32.711c0-6.012,4.848-10.925,10.925-10.925    h327.111c6.012,0,10.925,4.849,10.925,10.925V267.507z" fill="#48505a"/>
	</g>
</g>
<g>
	<g>
		<path d="M196.267,57.471c-27.022,0-49.067,22.044-49.067,49.067c0,27.022,22.044,49.067,49.067,49.067    s49.067-22.044,49.067-49.067S223.289,57.471,196.267,57.471z M196.267,133.818c-15.063,0-27.281-12.218-27.281-27.281    s12.218-27.281,27.281-27.281s27.281,12.218,27.281,27.281C223.547,121.6,211.329,133.818,196.267,133.818z" fill="#48505a"/>
	</g>
</g>
<g>
</g>
<g>
</g>
<g>
</g>
<g>
</g>
<g>
</g>
<g>
</g>
<g>
</g>
<g>
</g>
<g>
</g>
<g>
</g>
<g>
</g>
<g>
</g>
<g>
</g>
<g>
</g>
<g>
</g>
</svg>
