<svg xmlns="http://www.w3.org/2000/svg" viewBox="0 0 95.29 82.23"><defs><style>.cls-1{fill:#cdd5d7;}.cls-2{fill:#48505a;}.cls-3{fill:#fff;}.cls-4{fill:#bbe3f6;}.cls-5{fill:#ee761e;}</style></defs><title>Asset 15</title><g id="Layer_2" data-name="Layer 2"><g id="Layer_1-2" data-name="Layer 1"><path class="cls-1" d="M3.43,34.32H58.8a1.93,1.93,0,0,1,1.93,1.93V70.32a1.93,1.93,0,0,1-1.93,1.93H22.34a1.93,1.93,0,0,0-1.37.57L13.39,80.4a1.12,1.12,0,0,1-1.91-.79V74.18a1.93,1.93,0,0,0-1.93-1.93H3.43A1.93,1.93,0,0,1,1.5,70.32V36.25A1.93,1.93,0,0,1,3.43,34.32Z"/><path class="cls-2" d="M12.6,82.23A2.63,2.63,0,0,1,10,79.61V74.18a.43.43,0,0,0-.43-.43H3.43A3.43,3.43,0,0,1,0,70.32V36.25a3.43,3.43,0,0,1,3.43-3.43H58.8a3.43,3.43,0,0,1,3.43,3.43V70.32a3.43,3.43,0,0,1-3.43,3.43H22.34a.43.43,0,0,0-.3.13l-7.58,7.58A2.61,2.61,0,0,1,12.6,82.23ZM3.43,35.82a.43.43,0,0,0-.43.43V70.32a.43.43,0,0,0,.43.43H9.54A3.43,3.43,0,0,1,13,74.18V78.7l6.94-6.94a3.41,3.41,0,0,1,2.43-1H58.8a.43.43,0,0,0,.43-.43V36.25a.43.43,0,0,0-.43-.43Z"/><path class="cls-3" d="M90.59,1.5H23.19A3.2,3.2,0,0,0,20,4.7v46a3.2,3.2,0,0,0,3.2,3.2H64.78a3.2,3.2,0,0,1,2.27.94L77.88,65.69A1.25,1.25,0,0,0,80,64.81V57.12a3.2,3.2,0,0,1,3.2-3.2h7.38a3.2,3.2,0,0,0,3.2-3.2V4.7A3.2,3.2,0,0,0,90.59,1.5Z"/><path class="cls-2" d="M78.76,67.56a2.74,2.74,0,0,1-1.94-.81L66,55.92a1.69,1.69,0,0,0-1.2-.5H23.19a4.71,4.71,0,0,1-4.7-4.7V4.7A4.71,4.71,0,0,1,23.19,0h67.4a4.71,4.71,0,0,1,4.7,4.7v46a4.71,4.71,0,0,1-4.7,4.7H83.21a1.71,1.71,0,0,0-1.7,1.7v7.69a2.75,2.75,0,0,1-2.75,2.75ZM23.19,3a1.71,1.71,0,0,0-1.7,1.7v46a1.71,1.71,0,0,0,1.7,1.7H64.78A4.67,4.67,0,0,1,68.1,53.8l10.4,10.4V57.12a4.71,4.71,0,0,1,4.7-4.7h7.38a1.71,1.71,0,0,0,1.7-1.7V4.7A1.71,1.71,0,0,0,90.59,3Z"/><line class="cls-4" x1="33.35" y1="18.25" x2="80.42" y2="18.25"/><rect class="cls-5" x="33.35" y="16.75" width="47.07" height="3"/><line class="cls-4" x1="33.35" y1="28.54" x2="80.42" y2="28.54"/><rect class="cls-5" x="33.35" y="27.04" width="47.07" height="3"/><line class="cls-4" x1="33.35" y1="38.83" x2="80.42" y2="38.83"/><rect class="cls-5" x="33.35" y="37.33" width="47.07" height="3"/></g></g></svg>