<svg xmlns="http://www.w3.org/2000/svg" viewBox="0 0 99.11 108.1"><defs><style>.cls-1{fill:#fff;}.cls-2{fill:#48505a;}.cls-3{fill:#b7bec0;}.cls-4{fill:#ee761e;}</style></defs><title>Asset 20</title><g id="Layer_2" data-name="Layer 2"><g id="Layer_1-2" data-name="Layer 1"><path class="cls-1" d="M76,16.4c-9.28-1.73-17.38-5.29-23.22-9.75a5.33,5.33,0,0,0-6.45,0c-5.84,4.47-13.94,8-23.21,9.75a61.23,61.23,0,0,1-14,1,5.36,5.36,0,0,0-5.63,5.35v32C3.48,83.36,22.19,96.2,48,104a5.36,5.36,0,0,0,3.1,0C76.93,96.2,95.63,83.36,95.63,54.79v-32A5.36,5.36,0,0,0,90,17.4,61.21,61.21,0,0,1,76,16.4Z"/><path class="cls-2" d="M49.56,108.1l-1-.28C26,101.21,0,89.22,0,54.79V15.72a2.53,2.53,0,0,1,2.92-2.5L4,13.4A55.63,55.63,0,0,0,22.48,13c10-1.87,19-6.09,24.64-11.6l.67-.66a2.53,2.53,0,0,1,3.54,0l.67.66c5.62,5.5,14.6,9.73,24.64,11.6a55.63,55.63,0,0,0,18.46.42l1.1-.17a2.53,2.53,0,0,1,2.92,2.5V54.79c0,34.42-26,46.42-48.58,53Zm-40-87.19A2.51,2.51,0,0,0,7,23.43V54.79c0,23.11,12.54,36.89,41.84,45.82a2.6,2.6,0,0,0,1.5,0c29.3-8.93,41.84-22.71,41.84-45.82V23.43a2.51,2.51,0,0,0-2.6-2.52,65.11,65.11,0,0,1-14.19-1.08A59.41,59.41,0,0,1,51,9.7a2.48,2.48,0,0,0-3,0A59.42,59.42,0,0,1,23.76,19.83,65.15,65.15,0,0,1,9.57,20.91Z"/><path class="cls-3" d="M50.6,91.75a3.38,3.38,0,0,1-2.08,0c-23.8-7.77-33.19-18.38-33.19-37V32.31a3.32,3.32,0,0,1,3-3.3c2.31-.21,4.62-.53,6.93-1a70.38,70.38,0,0,0,22.63-8.21,3.26,3.26,0,0,1,3.29,0,70.41,70.41,0,0,0,22.63,8.22c2.31.43,4.62.75,6.93,1a3.32,3.32,0,0,1,3,3.3V54.79C83.78,73.37,74.39,84,50.6,91.75Z"/><circle class="cls-1" cx="49.56" cy="52.93" r="21.72"/><polyline class="cls-1" points="58.78 44.77 47.65 58.72 40.33 53.99"/><path class="cls-4" d="M47.74,62.92,39.19,57.4a.88.88,0,0,1-.26-1.22l2.82-4.37A.88.88,0,0,1,43,51.54l3.26,2.1a.88.88,0,0,0,1.17-.19L55.5,43.29a.88.88,0,0,1,1.24-.14l4.06,3.24A.88.88,0,0,1,61,47.64l-12,15.09A.88.88,0,0,1,47.74,62.92Z"/></g></g></svg>