<svg xmlns="http://www.w3.org/2000/svg" viewBox="0 0 87.02 92"><defs><style>.cls-1{fill:#fff;}.cls-2{fill:#48505a;}.cls-3{fill:#ee761e;}</style></defs><title>Asset 14</title><g id="Layer_2" data-name="Layer 2"><g id="Layer_1-2" data-name="Layer 1"><rect class="cls-1" x="28.53" y="13.36" width="56.99" height="77.14" rx="2.64" ry="2.64"/><path class="cls-2" d="M82.88,92H31.17A4.15,4.15,0,0,1,27,87.85V16a4.15,4.15,0,0,1,4.14-4.14h51.7A4.15,4.15,0,0,1,87,16V87.85A4.15,4.15,0,0,1,82.88,92ZM31.17,14.86A1.14,1.14,0,0,0,30,16V87.85A1.14,1.14,0,0,0,31.17,89h51.7A1.14,1.14,0,0,0,84,87.85V16a1.14,1.14,0,0,0-1.14-1.14Z"/><rect class="cls-2" x="40.38" y="28.8" width="33.33" height="3"/><rect class="cls-3" x="36.17" y="28.8" width="2.48" height="3"/><rect class="cls-2" x="40.38" y="32.87" width="35.9" height="3"/><rect class="cls-2" x="40.38" y="36.93" width="35.9" height="3"/><rect class="cls-2" x="40.38" y="47.38" width="33.33" height="3"/><rect class="cls-3" x="36.17" y="47.38" width="2.48" height="3"/><rect class="cls-2" x="40.38" y="51.45" width="35.9" height="3"/><rect class="cls-2" x="40.38" y="55.51" width="35.9" height="3"/><rect class="cls-2" x="40.38" y="65.96" width="33.33" height="3"/><rect class="cls-3" x="36.17" y="65.96" width="2.48" height="3"/><rect class="cls-2" x="40.38" y="70.03" width="35.9" height="3"/><rect class="cls-3" x="33.64" y="32.44" width="2.48" height="3"/><rect class="cls-3" x="33.64" y="51.02" width="2.48" height="3"/><rect class="cls-3" x="33.64" y="69.6" width="2.48" height="3"/><rect class="cls-3" x="38.14" y="34.44" width="2.48" height="3"/><rect class="cls-3" x="38.14" y="53.02" width="2.48" height="3"/><rect class="cls-3" x="38.14" y="71.6" width="2.48" height="3"/><rect class="cls-1" x="1.5" y="1.5" width="56.99" height="77.14" rx="2.64" ry="2.64"/><path class="cls-2" d="M55.85,80.14H4.14A4.15,4.15,0,0,1,0,76V4.14A4.15,4.15,0,0,1,4.14,0h51.7A4.15,4.15,0,0,1,60,4.14V76A4.15,4.15,0,0,1,55.85,80.14ZM4.14,3A1.14,1.14,0,0,0,3,4.14V76a1.14,1.14,0,0,0,1.14,1.14h51.7A1.14,1.14,0,0,0,57,76V4.14A1.14,1.14,0,0,0,55.85,3Z"/><rect class="cls-2" x="13.35" y="16.94" width="33.33" height="3"/><rect class="cls-3" x="9.14" y="16.94" width="2.48" height="3"/><rect class="cls-2" x="13.35" y="21.01" width="35.9" height="3"/><rect class="cls-2" x="13.35" y="25.08" width="35.9" height="3"/><rect class="cls-2" x="13.35" y="35.52" width="33.33" height="3"/><rect class="cls-3" x="9.14" y="35.52" width="2.48" height="3"/><rect class="cls-2" x="13.35" y="39.59" width="35.9" height="3"/><rect class="cls-2" x="13.35" y="43.66" width="35.9" height="3"/><rect class="cls-2" x="13.35" y="54.1" width="33.33" height="3"/><rect class="cls-3" x="9.14" y="54.1" width="2.48" height="3"/><rect class="cls-2" x="13.35" y="58.17" width="35.9" height="3"/></g></g></svg>