<svg xmlns="http://www.w3.org/2000/svg" viewBox="0 0 109.63 91.95"><defs><style>.cls-1{fill:#fff;}.cls-2{fill:#48505a;}.cls-3{fill:#cdd5d7;}.cls-4{fill:#36434b;}.cls-5{fill:#b7bec0;}.cls-6{fill:#ee761e;}.cls-7{fill:#bbe3f6;}</style></defs><title>Asset 11</title><g id="Layer_2" data-name="Layer 2"><g id="Layer_1-2" data-name="Layer 1"><rect class="cls-1" x="1.5" y="1.5" width="83.77" height="67.61" rx="1.98" ry="1.98"/><path class="cls-2" d="M83.29,70.61H3.48A3.48,3.48,0,0,1,0,67.13V3.48A3.48,3.48,0,0,1,3.48,0H83.29a3.48,3.48,0,0,1,3.48,3.48V67.13A3.48,3.48,0,0,1,83.29,70.61ZM3.48,3A.48.48,0,0,0,3,3.48V67.13a.48.48,0,0,0,.48.48H83.29a.48.48,0,0,0,.48-.48V3.48A.48.48,0,0,0,83.29,3Z"/><rect class="cls-3" x="1.5" y="1.5" width="83.77" height="8.08" rx="0.67" ry="0.67"/><path class="cls-2" d="M84.6,11.08H2.17A2.17,2.17,0,0,1,0,8.91V2.17A2.17,2.17,0,0,1,2.17,0H84.6a2.17,2.17,0,0,1,2.17,2.17V8.91A2.17,2.17,0,0,1,84.6,11.08ZM3,8.08H83.77V3H3Z"/><rect class="cls-2" x="4.48" y="3.97" width="2.63" height="3"/><rect class="cls-2" x="9.03" y="3.97" width="2.63" height="3"/><rect class="cls-2" x="13.58" y="3.97" width="2.63" height="3"/><rect class="cls-4" x="6.58" y="54.94" width="21.75" height="3"/><rect class="cls-4" x="6.58" y="60.47" width="21.75" height="3"/><rect class="cls-5" x="7.35" y="43.22" width="20.2" height="8.08"/><path class="cls-2" d="M29,52.8H5.85V41.72H29Zm-20.2-3H26V44.72H8.85Z"/><rect class="cls-4" x="32.51" y="54.94" width="21.75" height="3"/><rect class="cls-4" x="32.51" y="60.47" width="21.75" height="3"/><rect class="cls-5" x="33.27" y="43.22" width="20.2" height="8.08"/><path class="cls-2" d="M55,52.8H31.77V41.72H55Zm-20.2-3H52V44.72H34.77Z"/><rect class="cls-4" x="58.43" y="54.94" width="21.75" height="3"/><rect class="cls-4" x="58.43" y="60.47" width="21.75" height="3"/><rect class="cls-5" x="59.2" y="43.22" width="20.2" height="8.08"/><path class="cls-2" d="M80.9,52.8H57.7V41.72H80.9Zm-20.2-3H77.9V44.72H60.7Z"/><rect class="cls-5" x="1.5" y="21.06" width="83.77" height="16.09"/><path class="cls-2" d="M86.77,38.65H0V19.56H86.77ZM3,35.65H83.77V22.56H3Z"/><rect class="cls-6" x="6.58" y="14.12" width="21.75" height="3"/><path class="cls-1" d="M40.94,29h64.14a3,3,0,0,1,3,3V75.85a3,3,0,0,1-3,3H65.5a3,3,0,0,0-2.16.89L53,90.1a1.19,1.19,0,0,1-2-.84V81.95a3,3,0,0,0-3-3h-7a3,3,0,0,1-3-3V32.06A3,3,0,0,1,40.94,29Z"/><path class="cls-2" d="M52.19,92a2.69,2.69,0,0,1-2.69-2.69V81.95A1.55,1.55,0,0,0,48,80.4h-7a4.55,4.55,0,0,1-4.55-4.55V32.06a4.55,4.55,0,0,1,4.55-4.55h64.14a4.55,4.55,0,0,1,4.55,4.55V75.85a4.55,4.55,0,0,1-4.55,4.55H65.5a1.54,1.54,0,0,0-1.1.45L54.09,91.17A2.68,2.68,0,0,1,52.19,92ZM40.94,30.52a1.55,1.55,0,0,0-1.55,1.55V75.85a1.55,1.55,0,0,0,1.55,1.55h7a4.55,4.55,0,0,1,4.55,4.55v6.56l9.78-9.78A4.52,4.52,0,0,1,65.5,77.4h39.58a1.55,1.55,0,0,0,1.55-1.55V32.06a1.55,1.55,0,0,0-1.55-1.55Z"/><line class="cls-7" x1="95.4" y1="44.96" x2="50.61" y2="44.96"/><rect class="cls-6" x="50.61" y="43.46" width="44.79" height="3"/><line class="cls-7" x1="95.4" y1="54.75" x2="50.61" y2="54.75"/><rect class="cls-6" x="50.61" y="53.25" width="44.79" height="3"/><line class="cls-7" x1="95.4" y1="64.54" x2="50.61" y2="64.54"/><rect class="cls-6" x="50.61" y="63.04" width="44.79" height="3"/></g></g></svg>