<svg xmlns="http://www.w3.org/2000/svg" viewBox="0 0 136.95 140.4"><defs><style>.cls-1{fill:#fff;}.cls-2{fill:#48505a;}.cls-3{fill:#ee761e;}</style></defs><title>Asset 17</title><g id="Layer_2" data-name="Layer 2"><g id="Layer_1-2" data-name="Layer 1"><rect class="cls-1" x="3" y="3" width="99.29" height="134.4" rx="4.61" ry="4.61"/><path class="cls-2" d="M97.69,140.4H7.6A7.61,7.61,0,0,1,0,132.8V7.61A7.61,7.61,0,0,1,7.6,0H97.69a7.61,7.61,0,0,1,7.61,7.61V132.8A7.61,7.61,0,0,1,97.69,140.4ZM7.6,6A1.61,1.61,0,0,0,6,7.61V132.8a1.61,1.61,0,0,0,1.6,1.61H97.69a1.61,1.61,0,0,0,1.61-1.61V7.61A1.61,1.61,0,0,0,97.69,6Z"/><rect class="cls-2" x="21.65" y="18.02" width="58.07" height="5"/><rect class="cls-2" x="21.65" y="25.11" width="62.55" height="5"/><rect class="cls-2" x="21.65" y="32.19" width="62.55" height="5"/><rect class="cls-2" x="21.65" y="50.39" width="58.07" height="5"/><rect class="cls-2" x="21.65" y="57.48" width="62.55" height="5"/><rect class="cls-2" x="21.65" y="64.56" width="62.55" height="5"/><rect class="cls-2" x="21.65" y="82.76" width="58.07" height="5"/><rect class="cls-2" x="21.65" y="89.85" width="62.55" height="5"/><path class="cls-2" d="M84.2,123.35H81.65v-5H84.2Zm-5.55,0h-3v-5h3Zm-6,0h-3v-5h3Zm-6,0h-3v-5h3Zm-6,0h-3v-5h3Zm-6,0h-3v-5h3Zm-6,0h-3v-5h3Zm-6,0h-3v-5h3Zm-6,0h-3v-5h3Zm-6,0h-3v-5h3Zm-6,0h-3v-5h3Z"/><path class="cls-1" d="M71.52,114.15l0,.05-.53-.32c2.19-4.22,2.43-8.51.64-10.54a34.08,34.08,0,0,0,3.52-4A34.53,34.53,0,0,0,78,94.88a31.56,31.56,0,0,0,8.19,5,35,35,0,0,0-4.57,9.55c-2.64-.66-6.33,1.53-9.07,5.42L72,114.5l0-.05"/><path class="cls-2" d="M72.93,116.83l-.94-.57h0L70,115h0l-1-.6.64-1.24c2.11-4.06,2-7.53.84-8.86l-.95-1.08,1-1a32.45,32.45,0,0,0,3.36-3.82,33,33,0,0,0,2.72-4.25l.88-1.65,1.42,1.21a30,30,0,0,0,7.78,4.73l1.73.7-1.06,1.54A33.58,33.58,0,0,0,83,109.84l-.41,1.37-1.39-.35c-1.72-.43-4.85,1.09-7.48,4.83Zm-1.43-2.66.5.29-.5-.3Zm2-10.64c1,2,1,4.71.15,7.65,2.21-2.12,4.67-3.34,6.86-3.38a37.08,37.08,0,0,1,3.42-7.28c-.95-.46-1.9-1-2.85-1.55a32.29,32.29,0,0,1-2.69-1.82c-.63,1-1.32,2.07-2.08,3.08A36,36,0,0,1,73.52,103.53Z"/><path class="cls-3" d="M112.4,39.71c4.73-7.77,11.72-3.51,7,4.26-7.76,13.16-25.55,42.69-33.31,55.85L78,94.92C86.24,81.82,104.36,52.55,112.4,39.71Z"/><path class="cls-2" d="M86.61,101.89,76,95.42l.81-1.29c4.14-6.61,10.8-17.33,17.42-28,6.5-10.46,13-20.86,16.95-27.23,3-4.87,6.8-5.59,9.1-4.19s3.43,5.13.46,10c-3.88,6.58-10.39,17.45-16.68,28S91.26,94,87.39,100.58Zm-6.5-7.46,5.46,3.32c3.93-6.64,10-16.76,15.86-26.57,6.29-10.51,12.8-21.38,16.68-28,1.81-3,1.63-5.26.55-5.91s-3.19.24-5,3.19v0c-4,6.37-10.45,16.76-16.95,27.23C90.52,77.72,84.28,87.77,80.11,94.43Z"/><path class="cls-3" d="M100.2,56.6l22.46-36.88a4.48,4.48,0,0,1,6-1.87l2.45,1.49a4.48,4.48,0,0,1,1.11,6.21L109.77,62.47Z"/><path class="cls-2" d="M110.27,64.54,98.14,57.1l23.24-38.16A6.53,6.53,0,0,1,125,16.07a5.4,5.4,0,0,1,4.47.5l2.45,1.49a6,6,0,0,1,1.61,8.27Zm-8-8.43,7,4.3L131,24.78a3,3,0,0,0-.61-4.15l-2.45-1.49a2.43,2.43,0,0,0-2-.2,3.54,3.54,0,0,0-1.95,1.57Z"/><path class="cls-2" d="M118.87,60.77l-2.56-1.56,17-28a4,4,0,0,0,.63-2.16l-11.88-7.25,1.57-2.56,11.92,7.31c2,1.22,1.62,4,.34,6.2Z"/><rect class="cls-2" x="67.69" y="108.12" width="14.21" height="3" transform="translate(-57.75 116.1) rotate(-58.49)"/></g></g></svg>