<svg xmlns="http://www.w3.org/2000/svg" viewBox="0 0 91.2 68.17"><defs><style>.cls-1{fill:#fff;}.cls-2{fill:#48505a;}.cls-3{fill:#ee761e;}</style></defs><title>Asset 16</title><g id="Layer_2" data-name="Layer 2"><g id="Layer_1-2" data-name="Layer 1"><rect class="cls-1" x="1.5" y="1.5" width="88.2" height="65.17" rx="3.02" ry="3.02"/><path class="cls-2" d="M86.68,68.17H4.52A4.53,4.53,0,0,1,0,63.64V4.52A4.53,4.53,0,0,1,4.52,0H86.68A4.53,4.53,0,0,1,91.2,4.52V63.64A4.53,4.53,0,0,1,86.68,68.17ZM4.52,3A1.52,1.52,0,0,0,3,4.52V63.64a1.52,1.52,0,0,0,1.52,1.52H86.68a1.52,1.52,0,0,0,1.52-1.52V4.52A1.52,1.52,0,0,0,86.68,3Z"/><rect class="cls-2" x="22.68" y="11.6" width="3.38" height="44.59"/><rect class="cls-2" x="44.12" y="11.6" width="3.38" height="44.59"/><rect class="cls-2" x="65.42" y="11.6" width="3.38" height="44.59"/><circle class="cls-3" cx="24.4" cy="42.52" r="6.1"/><circle class="cls-3" cx="45.74" cy="24.22" r="6.1"/><circle class="cls-3" cx="67.08" cy="37.94" r="6.1"/></g></g></svg>