<svg xmlns="http://www.w3.org/2000/svg" viewBox="0 0 109.26 71.83"><defs><style>.cls-1{fill:#fff;}.cls-2{fill:#48505a;}.cls-3{fill:#b7bec0;}.cls-4{fill:#f6f6f6;}.cls-5{fill:#fdc30b;}.cls-6{fill:#bbe3f6;}.cls-7{fill:#ee761e;}</style></defs><title>Asset 13</title><g id="Layer_2" data-name="Layer 2"><g id="Layer_1-2" data-name="Layer 1"><rect class="cls-1" x="18.48" y="9.78" width="88.95" height="60.22" rx="4.6" ry="4.6"/><path class="cls-2" d="M104.66,71.83H21.25a4.6,4.6,0,0,1-4.6-4.6V12.55A4.6,4.6,0,0,1,21.25,8h83.41a4.6,4.6,0,0,1,4.6,4.6V67.24A4.6,4.6,0,0,1,104.66,71.83ZM24.22,68.68h77.47A4.68,4.68,0,0,0,106.37,64V15.78a4.68,4.68,0,0,0-4.68-4.68H24.22a4.68,4.68,0,0,0-4.68,4.68V64A4.68,4.68,0,0,0,24.22,68.68Z"/><rect class="cls-3" x="24.04" y="15.34" width="77.83" height="49.11" rx="4.19" ry="4.19"/><path class="cls-4" d="M75.88,63.14a1.6,1.6,0,0,0,1.6-1.6V54.13A5.75,5.75,0,0,0,73.76,49a38.37,38.37,0,0,0-21.93,0,5.76,5.76,0,0,0-3.71,5.13v7.41a1.6,1.6,0,0,0,1.6,1.6Z"/><path class="cls-2" d="M75.88,64.64H49.72a3.1,3.1,0,0,1-3.1-3.1V54.13a7.26,7.26,0,0,1,4.78-6.56,39.77,39.77,0,0,1,22.8,0A7.25,7.25,0,0,1,79,54.13v7.41A3.1,3.1,0,0,1,75.88,64.64ZM62.8,48.9a36.85,36.85,0,0,0-10.54,1.54,4.31,4.31,0,0,0-2.64,3.69v7.41a.1.1,0,0,0,.1.1H75.88a.1.1,0,0,0,.1-.1V54.13a4.25,4.25,0,0,0-2.65-3.69A36.8,36.8,0,0,0,62.8,48.9Z"/><circle class="cls-3" cx="62.8" cy="39.69" r="7.46"/><line class="cls-5" x1="54.87" y1="55.4" x2="54.87" y2="62.86"/><line class="cls-5" x1="70.73" y1="55.4" x2="70.73" y2="62.86"/><circle class="cls-4" cx="62.8" cy="39.69" r="7.46"/><path class="cls-2" d="M62.8,48.65a9,9,0,1,1,9-9A9,9,0,0,1,62.8,48.65Zm0-14.91a6,6,0,1,0,6,6A6,6,0,0,0,62.8,33.73Z"/><rect class="cls-2" x="53.37" y="55.4" width="3" height="7.47"/><rect class="cls-2" x="69.23" y="55.4" width="3" height="7.47"/><path class="cls-1" d="M24.95,1.5A23.43,23.43,0,0,0,7.08,40.11L1.61,50.47l9.94-6.3A23.44,23.44,0,1,0,24.95,1.5Z"/><path class="cls-2" d="M1.61,52a1.5,1.5,0,0,1-1.33-2.2l5-9.48A25,25,0,1,1,11.53,46L2.42,51.74A1.5,1.5,0,0,1,1.61,52Zm9.94-9.3a1.5,1.5,0,0,1,.86.27,22,22,0,1,0-4.19-3.81,1.5,1.5,0,0,1,.18,1.67L5.57,46.19l5.18-3.28A1.5,1.5,0,0,1,11.55,42.67Z"/><line class="cls-6" x1="12.45" y1="14.89" x2="37.3" y2="14.89"/><rect class="cls-7" x="12.45" y="13.39" width="24.85" height="3"/><line class="cls-6" x1="12.45" y1="24.96" x2="37.3" y2="24.96"/><rect class="cls-7" x="12.45" y="23.46" width="24.85" height="3"/><line class="cls-6" x1="12.45" y1="35.03" x2="37.3" y2="35.03"/><rect class="cls-7" x="12.45" y="33.53" width="24.85" height="3"/></g></g></svg>